# This file uses centimeters as units for non-parametric coordinates.

mtllib bathroom_ShowerScreen_Panel_T_R.mtl
g default
v 0.810298 9.347844 -1.939799
v 0.907216 9.347844 -1.939799
v 0.949284 9.347844 -1.939799
v 6.571913 9.347844 -1.939799
v 6.613980 9.347844 -1.939799
v 6.710899 9.347844 -1.939799
v 0.810298 9.384264 -1.939799
v 6.710899 9.384264 -1.939799
v 0.810298 9.401661 -1.939799
v 6.710899 9.401661 -1.939799
v 0.810298 9.972158 -1.939799
v 6.710899 9.972158 -1.939799
v 0.810298 9.347844 -1.957960
v 0.907216 9.347844 -1.957960
v 0.810298 9.384264 -1.957960
v 0.949284 9.347844 -1.957960
v 6.571913 9.347844 -1.957960
v 6.613980 9.347844 -1.957960
v 6.710899 9.347844 -1.957960
v 6.710899 9.384264 -1.957960
v 0.810298 9.401661 -1.957960
v 6.710899 9.401661 -1.957960
v 0.810298 9.972158 -1.957960
v 6.710899 9.972158 -1.957960
v 0.914090 9.385138 -1.939799
v 0.909058 9.387525 -1.939799
v 0.907216 9.390787 -1.939799
v 0.895481 9.384264 -1.939799
v 0.907216 9.378696 -1.939799
v 0.920964 9.384264 -1.939799
v 0.907216 9.390787 -1.929035
v 0.909058 9.387525 -1.929035
v 0.914090 9.385138 -1.929035
v 0.920964 9.384264 -1.929035
v 0.947442 9.387525 -1.939799
v 0.942410 9.385138 -1.939799
v 0.935535 9.384264 -1.939799
v 0.949284 9.378696 -1.939799
v 0.961018 9.384264 -1.939799
v 0.949284 9.390787 -1.939799
v 0.949284 9.390787 -1.929035
v 0.935535 9.384264 -1.929035
v 0.942410 9.385138 -1.929035
v 0.947442 9.387525 -1.929035
v 0.942410 9.400787 -1.939799
v 0.947442 9.398399 -1.939799
v 0.949284 9.395138 -1.939799
v 0.961018 9.401661 -1.939799
v 0.949284 9.407228 -1.939799
v 0.935535 9.401661 -1.939799
v 0.935535 9.401661 -1.929035
v 0.949284 9.395138 -1.929035
v 0.947442 9.398399 -1.929035
v 0.942410 9.400787 -1.929035
v 0.909058 9.398399 -1.939799
v 0.914090 9.400787 -1.939799
v 0.920964 9.401661 -1.939799
v 0.907216 9.407228 -1.939799
v 0.895481 9.401661 -1.939799
v 0.907216 9.395138 -1.939799
v 0.907216 9.395138 -1.929035
v 0.920964 9.401661 -1.929035
v 0.914090 9.400787 -1.929035
v 0.909058 9.398399 -1.929035
v 6.578787 9.385138 -1.939799
v 6.573755 9.387525 -1.939799
v 6.571913 9.390787 -1.939799
v 6.560178 9.384264 -1.939799
v 6.571913 9.378696 -1.939799
v 6.585661 9.384264 -1.939799
v 6.571913 9.390787 -1.929035
v 6.573755 9.387525 -1.929035
v 6.578787 9.385138 -1.929035
v 6.585661 9.384264 -1.929035
v 6.612138 9.387525 -1.939799
v 6.607106 9.385138 -1.939799
v 6.600232 9.384264 -1.939799
v 6.613980 9.378696 -1.939799
v 6.625715 9.384264 -1.939799
v 6.613980 9.390787 -1.939799
v 6.613980 9.390787 -1.929035
v 6.600232 9.384264 -1.929035
v 6.607106 9.385138 -1.929035
v 6.612138 9.387525 -1.929035
v 6.607106 9.400787 -1.939799
v 6.612138 9.398399 -1.939799
v 6.613980 9.395138 -1.939799
v 6.625715 9.401661 -1.939799
v 6.613980 9.407228 -1.939799
v 6.600232 9.401661 -1.939799
v 6.600232 9.401661 -1.929035
v 6.613980 9.395138 -1.929035
v 6.612138 9.398399 -1.929035
v 6.607106 9.400787 -1.929035
v 6.573755 9.398399 -1.939799
v 6.578787 9.400787 -1.939799
v 6.585661 9.401661 -1.939799
v 6.571913 9.407228 -1.939799
v 6.560178 9.401661 -1.939799
v 6.571913 9.395138 -1.939799
v 6.571913 9.395138 -1.929035
v 6.585661 9.401661 -1.929035
v 6.578787 9.400787 -1.929035
v 6.573755 9.398399 -1.929035
v 0.895481 9.972158 -1.939799
v 0.907216 9.966590 -1.939799
v 0.949284 9.966590 -1.939799
v 0.961018 9.972158 -1.939799
v 6.560178 9.972158 -1.939799
v 6.571913 9.966590 -1.939799
v 6.613980 9.966590 -1.939799
v 6.625715 9.972158 -1.939799
v 0.907216 9.382408 -1.939799
v 0.903305 9.384264 -1.939799
v 0.953195 9.384264 -1.939799
v 0.949284 9.382408 -1.939799
v 0.949284 9.403516 -1.939799
v 0.953195 9.401661 -1.939799
v 0.903305 9.401661 -1.939799
v 0.907216 9.403516 -1.939799
v 6.571913 9.382408 -1.939799
v 6.568002 9.384264 -1.939799
v 6.617892 9.384264 -1.939799
v 6.613980 9.382408 -1.939799
v 6.613980 9.403516 -1.939799
v 6.617892 9.401661 -1.939799
v 6.568002 9.401661 -1.939799
v 6.571913 9.403516 -1.939799
vt 0.000000 0.000000
vt 1.000000 0.000000
vt 1.000000 1.000000
vt 0.000000 1.000000
vt 1.000000 0.000000
vt 1.000000 1.000000
vt 0.000000 1.000000
vt 0.000000 0.000000
vt 1.000000 0.000000
vt 1.000000 1.000000
vt 0.000000 1.000000
vt 1.000000 0.000000
vt 1.000000 1.000000
vt 0.000000 0.000000
vt 0.000000 1.000000
vt 0.000000 0.000000
vt 1.000000 0.000000
vt 1.000000 1.000000
vt 0.000000 1.000000
vt 0.000000 0.000000
vt 1.000000 0.000000
vt 1.000000 1.000000
vt 0.000000 1.000000
vt 0.000000 0.000000
vt 1.000000 0.000000
vt 1.000000 1.000000
vt 0.000000 1.000000
vt 0.000000 0.000000
vt 1.000000 0.000000
vt 1.000000 1.000000
vt 0.000000 1.000000
vt 0.000000 0.000000
vt 1.000000 0.000000
vt 1.000000 1.000000
vt 0.000000 1.000000
vt 0.000000 0.000000
vt 0.000000 1.000000
vt 1.000000 0.000000
vt 1.000000 1.000000
vt 1.000000 0.000000
vt 1.000000 1.000000
vt 0.000000 0.000000
vt 0.000000 1.000000
vt 0.000000 0.000000
vt 0.000000 0.100000
vt 0.100000 0.000000
vt 0.000000 0.200000
vt 0.200000 0.000000
vt 0.800000 0.000000
vt 0.900000 0.000000
vt 1.000000 0.100000
vt 1.000000 0.200000
vt 0.000000 0.800000
vt 1.000000 0.800000
vt 0.100000 0.137497
vt 0.132681 0.100000
vt 0.167319 0.100000
vt 0.200000 0.137497
vt 0.200000 0.162507
vt 0.167319 0.200000
vt 0.132681 0.200000
vt 0.100000 0.162503
vt 0.800000 0.137497
vt 0.832682 0.100000
vt 0.867318 0.100000
vt 0.900000 0.137497
vt 0.900000 0.162503
vt 0.867318 0.200000
vt 0.832682 0.200000
vt 0.800000 0.162503
vt 0.100000 0.137497
vt 0.167318 0.100000
vt 0.200000 0.162503
vt 0.132681 0.200000
vt 0.800000 0.137497
vt 0.867318 0.100000
vt 0.900000 0.162503
vt 0.832682 0.200000
vt 0.132681 0.100000
vt 0.100000 0.084711
vt 0.087892 0.100000
vt 0.200000 0.137497
vt 0.201252 0.100000
vt 0.200000 0.084713
vt 0.167319 0.200000
vt 0.200000 0.205856
vt 0.201252 0.200000
vt 0.100000 0.162503
vt 0.087892 0.200000
vt 0.100000 0.205856
vt 0.832682 0.100000
vt 0.800000 0.084712
vt 0.798748 0.100000
vt 0.900000 0.137497
vt 0.912108 0.100000
vt 0.900000 0.084712
vt 0.867318 0.200000
vt 0.900000 0.205855
vt 0.912108 0.200000
vt 0.800000 0.162503
vt 0.798748 0.200000
vt 0.800000 0.205856
vt 0.100000 0.794144
vt 0.087892 0.800000
vt 0.201263 0.800000
vt 0.200000 0.794144
vt 0.800000 0.794144
vt 0.798748 0.800000
vt 0.912108 0.800000
vt 0.900000 0.794144
vt 0.120852 0.104889
vt 0.105768 0.118813
vt 0.115475 0.119741
vt 0.127103 0.106399
vt 0.191962 0.118790
vt 0.177590 0.105457
vt 0.172896 0.106399
vt 0.184525 0.119742
vt 0.176971 0.195401
vt 0.191699 0.181173
vt 0.184528 0.180255
vt 0.172896 0.193601
vt 0.105383 0.181212
vt 0.120617 0.194562
vt 0.127103 0.193601
vt 0.115472 0.180255
vt 0.823030 0.104889
vt 0.808303 0.118813
vt 0.815475 0.119741
vt 0.827104 0.106399
vt 0.894614 0.118790
vt 0.879383 0.105457
vt 0.872896 0.106399
vt 0.884525 0.119742
vt 0.879147 0.195400
vt 0.894233 0.181171
vt 0.884528 0.180255
vt 0.872896 0.193601
vt 0.808036 0.181212
vt 0.822411 0.194562
vt 0.827105 0.193601
vt 0.815472 0.180255
vt 0.105217 0.095830
vt 0.100702 0.100665
vt 0.191644 0.100705
vt 0.190777 0.095215
vt 0.191486 0.200582
vt 0.192060 0.199020
vt 0.101303 0.198953
vt 0.105525 0.201490
vt 0.808514 0.095830
vt 0.807940 0.100665
vt 0.898697 0.100705
vt 0.894475 0.095215
vt 0.894783 0.200582
vt 0.899298 0.199020
vt 0.808356 0.198953
vt 0.809223 0.201490
vn 0.000000 0.000000 1.000000
vn 0.000000 0.000000 1.000000
vn 0.000000 0.000000 1.000000
vn 0.000000 0.000000 1.000000
vn 0.000000 0.000000 1.000000
vn 0.000000 0.000000 1.000000
vn 0.000000 0.000000 1.000000
vn 0.000000 0.000000 1.000000
vn 0.000000 0.000000 1.000000
vn 0.000000 0.000000 1.000000
vn 0.000000 0.000000 1.000000
vn 0.000000 0.000000 1.000000
vn 0.000000 0.000000 1.000000
vn 0.000000 0.000000 1.000000
vn 0.000000 0.000000 1.000000
vn 0.000000 0.000000 1.000000
vn 0.000000 0.000000 1.000000
vn 0.000000 0.000000 1.000000
vn 0.000000 0.000000 1.000000
vn 0.000000 0.000000 1.000000
vn 0.000000 0.000000 1.000000
vn 0.000000 0.000000 1.000000
vn 0.000000 0.000000 1.000000
vn 0.000000 0.000000 1.000000
vn 0.000000 -1.000000 0.000000
vn 0.000000 -1.000000 0.000000
vn 0.000000 -1.000000 0.000000
vn 0.000000 -1.000000 0.000000
vn -1.000000 0.000000 0.000000
vn -1.000000 0.000000 0.000000
vn -1.000000 0.000000 0.000000
vn -1.000000 0.000000 0.000000
vn 0.000000 -1.000000 0.000000
vn 0.000000 -1.000000 0.000000
vn 0.000000 -1.000000 0.000000
vn 0.000000 -1.000000 0.000000
vn 0.000000 -1.000000 0.000000
vn 0.000000 -1.000000 0.000000
vn 0.000000 -1.000000 0.000000
vn 0.000000 -1.000000 0.000000
vn 1.000000 0.000000 0.000000
vn 1.000000 0.000000 0.000000
vn 1.000000 0.000000 0.000000
vn 1.000000 0.000000 0.000000
vn -1.000000 0.000000 0.000000
vn -1.000000 0.000000 0.000000
vn 1.000000 0.000000 0.000000
vn 1.000000 0.000000 0.000000
vn -1.000000 0.000000 0.000000
vn -1.000000 0.000000 0.000000
vn 1.000000 0.000000 0.000000
vn 1.000000 0.000000 0.000000
vn -0.040725 -0.999170 0.000000
vn -0.040725 -0.999170 0.000000
vn 0.040723 -0.999170 0.000000
vn 0.040723 -0.999170 0.000000
vn 0.971968 -0.235115 0.000000
vn 0.971967 -0.235117 0.000000
vn 0.971958 0.235154 -0.000000
vn 0.971958 0.235154 -0.000000
vn 0.040720 0.999171 -0.000000
vn 0.040723 0.999170 -0.000000
vn -0.040725 0.999170 -0.000000
vn -0.040722 0.999170 -0.000000
vn -0.971948 0.235196 -0.000000
vn -0.971948 0.235196 -0.000000
vn -0.971957 -0.235159 0.000000
vn -0.971957 -0.235157 0.000000
vn -0.040725 -0.999170 0.000000
vn -0.040725 -0.999170 0.000000
vn 0.040725 -0.999170 0.000000
vn 0.040725 -0.999170 0.000000
vn 0.971947 -0.235200 0.000000
vn 0.971947 -0.235201 0.000000
vn 0.971938 0.235239 -0.000000
vn 0.971938 0.235239 -0.000000
vn 0.040722 0.999170 -0.000000
vn 0.040725 0.999170 -0.000000
vn -0.040725 0.999170 -0.000000
vn -0.040722 0.999170 -0.000000
vn -0.971948 0.235196 -0.000000
vn -0.971948 0.235196 -0.000000
vn -0.971957 -0.235159 0.000000
vn -0.971957 -0.235157 0.000000
vn 0.000000 0.000000 1.000000
vn 0.000000 0.000000 1.000000
vn 0.000000 0.000000 1.000000
vn 0.000000 0.000000 1.000000
vn 0.000000 0.000000 1.000000
vn 0.000000 0.000000 1.000000
vn 0.000000 0.000000 1.000000
vn 0.000000 0.000000 1.000000
vn 0.000000 0.000000 1.000000
vn 0.000000 0.000000 1.000000
vn 0.000000 0.000000 1.000000
vn 0.000000 0.000000 1.000000
vn 0.000000 0.000000 1.000000
vn 0.000000 0.000000 1.000000
vn 0.000000 0.000000 1.000000
vn 0.000000 0.000000 1.000000
vn -0.870802 -0.491633 0.000000
vn -0.870799 -0.491640 0.000000
vn -0.428580 -0.903504 0.000000
vn -0.264175 -0.964475 0.000000
vn -0.428580 -0.903504 0.000000
vn -0.264175 -0.964475 0.000000
vn 0.264153 -0.964481 0.000000
vn 0.264153 -0.964481 0.000000
vn 0.428580 -0.903504 0.000000
vn 0.428580 -0.903504 0.000000
vn 0.870839 -0.491569 0.000000
vn 0.870842 -0.491562 0.000000
vn 0.634949 0.772554 -0.000000
vn 0.634953 0.772551 -0.000000
vn 0.428766 0.903416 -0.000000
vn 0.428774 0.903412 -0.000000
vn 0.126125 0.992014 -0.000000
vn 0.126117 0.992015 -0.000000
vn -0.126136 0.992013 -0.000000
vn -0.126144 0.992012 -0.000000
vn -0.428774 0.903412 -0.000000
vn -0.634933 0.772567 -0.000000
vn -0.428766 0.903416 -0.000000
vn -0.634930 0.772570 -0.000000
vn -0.870802 -0.491633 0.000000
vn -0.870799 -0.491640 0.000000
vn -0.428567 -0.903510 0.000000
vn -0.264164 -0.964478 0.000000
vn -0.428567 -0.903510 0.000000
vn -0.264164 -0.964478 0.000000
vn 0.264175 -0.964475 0.000000
vn 0.264175 -0.964475 0.000000
vn 0.428604 -0.903492 0.000000
vn 0.428604 -0.903493 0.000000
vn 0.870759 -0.491711 0.000000
vn 0.870762 -0.491705 0.000000
vn 0.634930 0.772570 -0.000000
vn 0.634933 0.772567 -0.000000
vn 0.428790 0.903404 -0.000000
vn 0.428798 0.903400 -0.000000
vn 0.126138 0.992013 -0.000000
vn 0.126129 0.992014 -0.000000
vn -0.126129 0.992014 -0.000000
vn -0.126138 0.992013 -0.000000
vn -0.428762 0.903418 -0.000000
vn -0.634924 0.772575 -0.000000
vn -0.428754 0.903422 -0.000000
vn -0.634920 0.772578 -0.000000
vn 0.000000 0.000002 1.000000
vn 0.000000 -0.000002 1.000000
vn 0.000000 0.000000 1.000000
vn 0.000000 -0.000000 1.000000
vn 0.000000 0.000000 1.000000
vn 0.000000 -0.000000 1.000000
vn 0.000000 -0.000000 1.000000
vn 0.000000 -0.000000 1.000000
vn 0.000000 0.000000 1.000000
vn 0.000000 0.000000 1.000000
vn 0.000000 0.000000 1.000000
vn 0.000000 0.000000 1.000000
vn 0.000000 0.000000 1.000000
vn 0.000000 -0.000000 1.000000
vn 0.000000 0.000002 1.000000
vn 0.000000 0.000000 1.000000
vn 0.000000 0.000002 1.000000
vn 0.000000 0.000000 1.000000
vn 0.000000 0.000000 1.000000
vn 0.000000 0.000000 1.000000
vn 0.000000 -0.000000 1.000000
vn 0.000000 0.000000 1.000000
vn 0.000000 -0.000000 1.000000
vn 0.000000 0.000000 1.000000
vn 0.000000 0.000000 1.000000
vn 0.000000 0.000000 1.000000
vn 0.000000 0.000000 1.000000
vn 0.000000 0.000000 1.000000
vn 0.000000 -0.000000 1.000000
vn 0.000000 -0.000000 1.000000
vn 0.000000 0.000000 1.000000
vn 0.000000 0.000000 1.000000
vn 0.000000 0.000000 1.000000
vn 0.000000 0.000000 1.000000
vn 0.000000 0.000000 1.000000
vn 0.000000 0.000000 1.000000
vn 0.000000 0.000000 1.000000
vn 0.000000 0.000000 1.000000
vn 0.000000 0.000000 1.000000
vn 0.000000 0.000000 1.000000
vn 0.000000 0.000000 1.000000
vn 0.000000 0.000000 1.000000
vn 0.000000 0.000000 1.000000
vn 0.000000 0.000000 1.000000
vn 0.000000 0.000000 1.000000
vn 0.000000 0.000000 1.000000
vn 0.000000 0.000000 1.000000
vn 0.000000 0.000000 1.000000
vn 0.000000 0.000000 1.000000
vn 0.000000 0.000000 1.000000
vn 0.000000 0.000000 1.000000
vn 0.000000 0.000000 1.000000
vn 0.000000 0.000000 1.000000
vn 0.000000 0.000000 1.000000
vn 0.000000 0.000000 1.000000
vn 0.000000 0.000000 1.000000
vn 0.000000 0.000000 1.000000
vn 0.000000 0.000000 1.000000
vn 0.000000 0.000000 1.000000
vn 0.000000 0.000000 1.000000
vn 0.000000 0.000000 1.000000
vn 0.000000 0.000000 1.000000
vn 0.000000 0.000000 1.000000
vn 0.000000 0.000000 1.000000
vn 0.000000 0.000000 1.000000
vn 0.000000 0.000000 1.000000
vn 0.000000 0.000000 1.000000
vn 0.000000 0.000000 1.000000
vn 0.000000 0.000000 1.000000
vn 0.000000 0.000000 1.000000
vn 0.000000 0.000000 1.000000
vn 0.000000 0.000000 1.000000
vn 0.000000 0.000000 1.000000
vn 0.000000 0.000000 1.000000
vn 0.000000 0.000000 1.000000
vn 0.000000 0.000000 1.000000
s 1
g Top_Right Panels ShowerScreen
usemtl initialShadingGroup
f 1/44/1 2/46/2 7/45/3
f 28/81/4 7/45/3 29/80/5
f 2/46/2 29/80/5 7/45/3
f 29/80/5 38/84/6 30/79/7
f 30/79/7 38/84/6 37/57/8
f 4/49/9 5/50/10 69/92/11
f 69/92/11 5/50/10 78/96/12
f 5/50/10 6/25/13 78/96/12
f 8/51/14 79/95/15 6/25/13
f 6/25/13 79/95/15 78/96/12
f 59/89/16 28/81/4 60/88/17
f 60/88/17 28/81/4 27/55/18
f 12/54/19 112/109/20 10/52/21
f 112/109/20 111/110/22 10/52/21
f 88/99/23 10/52/21 89/98/24
f 111/110/22 89/98/24 10/52/21
s 9
f 2/1/25 1/2/26 14/4/27
f 14/4/27 1/2/26 13/3/28
s 10
f 1/44/29 7/5/30 13/7/31
f 13/7/31 7/5/30 15/6/32
s 9
f 3/8/33 2/9/25 16/11/34
f 16/11/34 2/9/25 14/10/27
f 16/13/34 17/15/35 3/12/33
f 3/12/33 17/15/35 4/14/36
f 5/16/37 4/17/36 18/19/38
f 18/19/38 4/17/36 17/18/35
f 6/20/39 5/21/37 19/23/40
f 19/23/40 5/21/37 18/22/38
s 11
f 8/24/41 6/25/42 20/27/43
f 20/27/43 6/25/42 19/26/44
s 10
f 7/28/30 9/29/45 15/31/32
f 15/31/32 9/29/45 21/30/46
s 11
f 10/32/47 8/33/41 22/35/48
f 22/35/48 8/33/41 20/34/43
s 10
f 23/41/49 21/37/46 11/40/50
f 11/40/50 21/37/46 9/36/45
s 11
f 22/39/48 24/43/51 10/38/47
f 10/38/47 24/43/51 12/42/52
s 12
f 34/56/53 30/79/54 42/72/55
f 42/72/55 30/79/54 37/57/56
s 13
f 41/58/57 40/82/58 52/73/59
f 52/73/59 40/82/58 47/59/60
s 14
f 51/60/61 50/85/62 62/74/63
f 62/74/63 50/85/62 57/61/64
s 15
f 61/62/65 60/88/66 31/71/67
f 31/71/67 60/88/66 27/55/68
s 16
f 74/64/69 70/91/70 82/76/71
f 82/76/71 70/91/70 77/65/72
s 17
f 81/66/73 80/94/74 92/77/75
f 92/77/75 80/94/74 87/67/76
s 18
f 91/68/77 90/97/78 102/78/79
f 102/78/79 90/97/78 97/69/80
s 19
f 101/70/81 100/100/82 71/75/83
f 71/75/83 100/100/82 67/63/84
s 1
f 3/48/85 4/49/9 38/84/6
f 38/84/6 4/49/9 39/83/86
f 68/93/87 39/83/86 69/92/11
f 39/83/86 4/49/9 69/92/11
f 48/87/88 39/83/86 99/101/89
f 99/101/89 39/83/86 68/93/87
f 58/90/90 49/86/91 106/103/92
f 106/103/92 49/86/91 107/106/93
f 11/53/94 9/47/95 105/104/96
f 105/104/96 9/47/95 106/103/92
f 59/89/16 58/90/90 9/47/95
f 58/90/90 106/103/92 9/47/95
f 88/99/23 79/95/15 10/52/21
f 10/52/21 79/95/15 8/51/14
f 108/105/97 107/106/93 109/108/98
f 107/106/93 49/86/91 109/108/98
f 109/108/98 49/86/91 110/107/99
f 48/87/88 99/101/89 49/86/91
f 99/101/89 98/102/100 49/86/91
f 49/86/91 98/102/100 110/107/99
s 15
f 27/55/68 26/112/101 31/71/67
f 31/71/67 26/112/101 32/113/102
s 12
f 26/112/103 25/111/104 32/113/105
f 32/113/105 25/111/104 33/114/106
f 25/111/104 30/79/54 33/114/106
f 33/114/106 30/79/54 34/56/53
f 37/57/56 36/116/107 42/72/55
f 42/72/55 36/116/107 43/117/108
f 36/116/107 35/115/109 43/117/108
f 43/117/108 35/115/109 44/118/110
s 13
f 35/115/111 40/82/58 44/118/112
f 44/118/112 40/82/58 41/58/57
f 47/59/60 46/120/113 52/73/59
f 52/73/59 46/120/113 53/121/114
f 46/120/113 45/119/115 53/121/114
f 53/121/114 45/119/115 54/122/116
s 14
f 45/119/117 50/85/62 54/122/118
f 54/122/118 50/85/62 51/60/61
f 57/61/64 56/124/119 62/74/63
f 62/74/63 56/124/119 63/125/120
s 15
f 56/124/121 55/123/122 63/125/123
f 63/125/123 55/123/122 64/126/124
f 55/123/122 60/88/66 64/126/124
f 64/126/124 60/88/66 61/62/65
s 19
f 67/63/84 66/128/125 71/75/83
f 71/75/83 66/128/125 72/129/126
s 16
f 66/128/127 65/127/128 72/129/129
f 72/129/129 65/127/128 73/130/130
f 65/127/128 70/91/70 73/130/130
f 73/130/130 70/91/70 74/64/69
f 77/65/72 76/132/131 82/76/71
f 82/76/71 76/132/131 83/133/132
f 76/132/131 75/131/133 83/133/132
f 83/133/132 75/131/133 84/134/134
s 17
f 75/131/135 80/94/74 84/134/136
f 84/134/136 80/94/74 81/66/73
f 87/67/76 86/136/137 92/77/75
f 92/77/75 86/136/137 93/137/138
f 86/136/137 85/135/139 93/137/138
f 93/137/138 85/135/139 94/138/140
s 18
f 85/135/141 90/97/78 94/138/142
f 94/138/142 90/97/78 91/68/77
f 97/69/80 96/140/143 102/78/79
f 102/78/79 96/140/143 103/141/144
s 19
f 96/140/145 95/139/146 103/141/147
f 103/141/147 95/139/146 104/142/148
f 95/139/146 100/100/82 104/142/148
f 104/142/148 100/100/82 101/70/81
s 30
f 34/56/149 42/72/150 33/114/151
f 42/72/150 43/117/152 33/114/151
f 33/114/151 43/117/152 32/113/153
f 43/117/152 44/118/154 32/113/153
f 32/113/153 44/118/154 31/71/155
f 44/118/154 41/58/156 31/71/155
f 31/71/155 41/58/156 61/62/157
f 41/58/156 52/73/158 61/62/157
f 61/62/157 52/73/158 64/126/159
f 52/73/158 53/121/160 64/126/159
f 53/121/160 54/122/161 64/126/159
f 64/126/159 54/122/161 63/125/162
f 54/122/161 51/60/163 63/125/162
f 51/60/163 62/74/164 63/125/162
s 31
f 74/64/165 82/76/166 73/130/167
f 82/76/166 83/133/168 73/130/167
f 73/130/167 83/133/168 72/129/169
f 83/133/168 84/134/170 72/129/169
f 72/129/169 84/134/170 71/75/171
f 84/134/170 81/66/172 71/75/171
f 71/75/171 81/66/172 101/70/173
f 81/66/172 92/77/174 101/70/173
f 101/70/173 92/77/174 104/142/175
f 92/77/174 93/137/176 104/142/175
f 93/137/176 94/138/177 104/142/175
f 104/142/175 94/138/177 103/141/178
f 94/138/177 91/68/179 103/141/178
f 91/68/179 102/78/180 103/141/178
s 1
f 25/111/181 113/143/182 30/79/7
f 30/79/7 113/143/182 29/80/5
f 29/80/5 113/143/182 28/81/4
f 28/81/4 113/143/182 114/144/183
f 114/144/183 26/112/184 28/81/4
f 28/81/4 26/112/184 27/55/18
f 26/112/184 114/144/183 25/111/181
f 25/111/181 114/144/183 113/143/182
f 40/82/185 35/115/186 39/83/86
f 39/83/86 35/115/186 115/145/187
f 115/145/187 116/146/188 39/83/86
f 39/83/86 116/146/188 38/84/6
f 38/84/6 116/146/188 37/57/8
f 37/57/8 116/146/188 36/116/189
f 116/146/188 115/145/187 36/116/189
f 36/116/189 115/145/187 35/115/186
f 45/119/190 117/147/191 50/85/192
f 50/85/192 117/147/191 49/86/91
f 49/86/91 117/147/191 48/87/88
f 48/87/88 117/147/191 118/148/193
f 118/148/193 46/120/194 48/87/88
f 48/87/88 46/120/194 47/59/195
f 46/120/194 118/148/193 45/119/190
f 45/119/190 118/148/193 117/147/191
f 60/88/17 55/123/196 59/89/16
f 59/89/16 55/123/196 119/149/197
f 119/149/197 120/150/198 59/89/16
f 59/89/16 120/150/198 58/90/90
f 58/90/90 120/150/198 57/61/199
f 57/61/199 120/150/198 56/124/200
f 120/150/198 119/149/197 56/124/200
f 56/124/200 119/149/197 55/123/196
f 65/127/201 121/151/202 70/91/203
f 70/91/203 121/151/202 69/92/11
f 69/92/11 121/151/202 68/93/87
f 68/93/87 121/151/202 122/152/204
f 122/152/204 66/128/205 68/93/87
f 68/93/87 66/128/205 67/63/206
f 66/128/205 122/152/204 65/127/201
f 65/127/201 122/152/204 121/151/202
f 80/94/207 75/131/208 79/95/15
f 79/95/15 75/131/208 123/153/209
f 123/153/209 124/154/210 79/95/15
f 79/95/15 124/154/210 78/96/12
f 78/96/12 124/154/210 77/65/211
f 77/65/211 124/154/210 76/132/212
f 124/154/210 123/153/209 76/132/212
f 76/132/212 123/153/209 75/131/208
f 85/135/213 125/155/214 90/97/215
f 90/97/215 125/155/214 89/98/24
f 89/98/24 125/155/214 88/99/23
f 88/99/23 125/155/214 126/156/216
f 126/156/216 86/136/217 88/99/23
f 88/99/23 86/136/217 87/67/218
f 86/136/217 126/156/216 85/135/213
f 85/135/213 126/156/216 125/155/214
f 100/100/219 95/139/220 99/101/89
f 99/101/89 95/139/220 127/157/221
f 127/157/221 128/158/222 99/101/89
f 99/101/89 128/158/222 98/102/100
f 98/102/100 128/158/222 97/69/223
f 97/69/223 128/158/222 96/140/224
f 128/158/222 127/157/221 96/140/224
f 96/140/224 127/157/221 95/139/220
f 7/45/3 28/81/4 9/47/95
f 9/47/95 28/81/4 59/89/16
f 2/46/2 3/48/85 29/80/5
f 29/80/5 3/48/85 38/84/6
f 50/85/192 49/86/91 57/61/199
f 57/61/199 49/86/91 58/90/90
f 48/87/88 47/59/195 39/83/86
f 39/83/86 47/59/195 40/82/185
f 98/102/100 89/98/24 110/107/99
f 110/107/99 89/98/24 111/110/22
f 80/94/207 79/95/15 87/67/218
f 87/67/218 79/95/15 88/99/23
f 69/92/11 78/96/12 70/91/203
f 70/91/203 78/96/12 77/65/211
f 99/101/89 68/93/87 100/100/219
f 100/100/219 68/93/87 67/63/206
f 90/97/215 89/98/24 97/69/223
f 97/69/223 89/98/24 98/102/100
