# This file uses centimeters as units for non-parametric coordinates.

mtllib bathroom_Shower_Lights.mtl
g default
v -1.343556 9.771929 -4.715450
v -1.342707 9.771929 -4.552145
v -5.932691 9.771929 -4.528269
v -5.933541 9.771929 -4.691574
v -1.343557 9.798241 -4.715449
v -1.342707 9.798241 -4.552146
v -5.932690 9.798241 -4.528270
v -5.933539 9.798241 -4.691573
v -5.953435 9.805683 -4.671474
v -5.959714 9.805683 -4.695943
v -5.954358 9.805683 -4.712176
v -5.938181 9.805683 -4.717701
v -5.913648 9.805683 -4.711677
v -5.913648 9.898930 -4.711677
v -5.938181 9.898930 -4.717701
v -5.954358 9.898930 -4.712176
v -5.959714 9.898930 -4.695943
v -5.953435 9.898930 -4.671474
v -5.912591 9.805683 -4.508375
v -5.937060 9.805683 -4.502096
v -5.953293 9.805683 -4.507452
v -5.958818 9.805683 -4.523628
v -5.952794 9.805683 -4.548162
v -5.912591 9.898930 -4.508375
v -5.952794 9.898930 -4.548162
v -5.958818 9.898930 -4.523628
v -5.953293 9.898930 -4.507452
v -5.937060 9.898930 -4.502096
v -1.317430 9.898930 -4.720091
v -1.322955 9.898930 -4.736267
v -1.339187 9.898930 -4.741623
v -1.363656 9.898930 -4.735345
v -1.323454 9.898930 -4.695558
v -1.363656 9.805683 -4.735345
v -1.339187 9.805683 -4.741623
v -1.322955 9.805683 -4.736267
v -1.317430 9.805683 -4.720091
v -1.323454 9.805683 -4.695558
v -1.338065 9.898930 -4.526019
v -1.321890 9.898930 -4.531544
v -1.316534 9.898930 -4.547776
v -1.322812 9.898930 -4.572245
v -1.362599 9.898930 -4.532042
v -1.322812 9.805683 -4.572245
v -1.316534 9.805683 -4.547776
v -1.321890 9.805683 -4.531544
v -1.338065 9.805683 -4.526019
v -1.362599 9.805683 -4.532042
v -1.363656 9.771929 -4.735345
v -1.339187 9.771929 -4.741623
v -1.322955 9.771929 -4.736267
v -1.317430 9.771929 -4.720091
v -1.323454 9.771929 -4.695558
v -1.322812 9.771929 -4.572245
v -1.316534 9.771929 -4.547776
v -1.321890 9.771929 -4.531544
v -1.338065 9.771929 -4.526019
v -1.362599 9.771929 -4.532042
v -5.912591 9.771929 -4.508375
v -5.937060 9.771929 -4.502096
v -5.953293 9.771929 -4.507452
v -5.958818 9.771929 -4.523628
v -5.952794 9.771929 -4.548162
v -5.953435 9.771929 -4.671474
v -5.959714 9.771929 -4.695943
v -5.954358 9.771929 -4.712176
v -5.938181 9.771929 -4.717701
v -5.913648 9.771929 -4.711677
vt 0.375000 0.750000
vt 0.625000 0.750000
vt 0.625000 1.000000
vt 0.375000 1.000000
vt 0.375000 0.750000
vt 0.625000 0.750000
vt 0.625000 1.000000
vt 0.375000 1.000000
vt 0.372840 0.000000
vt 0.372840 0.250000
vt 0.424182 0.250000
vt 0.575818 0.000000
vt 0.575818 0.250000
vt 0.627160 0.250000
vt 0.424182 0.500000
vt 0.872840 0.250000
vt 0.872840 0.000000
vt 0.424182 0.000000
vt 0.575818 0.500000
vt 0.575818 0.750000
vt 0.627160 0.000000
vt 0.127160 0.000000
vt 0.127160 0.250000
vt 0.424182 0.750000
vt 0.625000 0.752160
vt 0.575818 1.000000
vt 0.375000 0.997840
vt 0.375000 0.997840
vt 0.424182 1.000000
vt 0.424182 1.000000
vt 0.575818 1.000000
vt 0.625000 0.997840
vt 0.625000 0.997840
vt 0.424182 0.750000
vt 0.375000 0.752160
vt 0.375000 0.752160
vt 0.625000 0.752160
vt 0.575818 0.750000
vt 0.394579 1.000000
vt 0.394579 0.000000
vt 0.375000 1.000000
vt 0.375000 0.000000
vt 0.375000 0.998990
vt 0.373990 0.000000
vt 0.373990 0.250000
vt 0.375000 0.250000
vt 0.394151 0.251319
vt 0.625000 0.998990
vt 0.626010 0.000000
vt 0.625000 1.000000
vt 0.625000 0.000000
vt 0.605421 1.000000
vt 0.605421 0.000000
vt 0.605849 0.251319
vt 0.625000 0.250000
vt 0.626010 0.250000
vt 0.394305 0.500160
vt 0.375000 0.500000
vt 0.125000 0.250000
vt 0.126010 0.250000
vt 0.375000 0.751010
vt 0.126010 0.000000
vt 0.375000 0.750000
vt 0.125000 0.000000
vt 0.394204 0.748283
vt 0.873990 0.250000
vt 0.625000 0.500000
vt 0.875000 0.250000
vt 0.605762 0.500206
vt 0.605797 0.748283
vt 0.625000 0.750000
vt 0.875000 0.000000
vt 0.625000 0.751010
vt 0.873990 0.000000
vt 0.375000 0.751088
vt 0.375000 0.750000
vt 0.374902 0.749979
vt 0.625098 0.749979
vt 0.625000 0.750000
vt 0.625000 0.751088
vt 0.625000 0.998912
vt 0.625000 1.000000
vt 0.625093 1.000000
vt 0.374907 1.000000
vt 0.375000 1.000000
vt 0.375000 0.998912
vn 0.000000 -1.000000 0.000000
vn 0.000000 -1.000000 0.000000
vn 0.000000 -1.000000 0.000000
vn 0.000000 -1.000000 0.000000
vn -0.999987 -0.000021 0.005202
vn -0.999987 -0.000021 0.005202
vn -0.999987 -0.000021 0.005202
vn -0.999987 -0.000021 0.005202
vn -0.005202 -0.000040 -0.999986
vn -0.005202 -0.000040 -0.999986
vn -0.005202 -0.000040 -0.999987
vn -0.005202 -0.000040 -0.999986
vn 0.999987 -0.000042 -0.005202
vn 0.999987 -0.000042 -0.005202
vn 0.999987 -0.000042 -0.005202
vn 0.999987 -0.000042 -0.005202
vn 0.005202 -0.000040 0.999986
vn 0.005202 -0.000040 0.999986
vn 0.005202 -0.000040 0.999986
vn 0.005202 -0.000040 0.999987
vn -0.000000 -1.000000 0.000000
vn -0.000000 -1.000000 0.000000
vn -0.000000 -1.000000 0.000000
vn -0.000000 -1.000000 0.000000
vn 0.000000 -1.000000 -0.000000
vn -0.000000 -1.000000 0.000000
vn 0.000000 -1.000000 -0.000000
vn -0.000000 -1.000000 0.000000
vn -0.000000 -1.000000 0.000000
vn 0.000000 -1.000000 -0.000000
vn -0.000000 -1.000000 0.000000
vn 0.000000 -1.000000 -0.000000
vn -0.003857 0.000000 -0.999993
vn 0.238461 0.000000 -0.971152
vn 0.238461 0.000000 -0.971152
vn -0.003857 0.000000 -0.999993
vn -0.323212 0.000000 -0.946327
vn -0.323212 0.000000 -0.946327
vn -0.323212 0.000000 -0.946327
vn -0.323212 0.000000 -0.946327
vn -0.949640 0.000000 -0.313343
vn -0.949640 0.000000 -0.313343
vn -0.949641 0.000000 -0.313341
vn -0.949641 0.000000 -0.313341
vn -0.968620 0.000000 0.248547
vn -0.998905 0.000000 0.046776
vn -0.998905 0.000000 0.046776
vn -0.968620 0.000000 0.248546
vn -0.999338 0.000000 -0.036382
vn -0.971153 0.000000 -0.238457
vn -0.971153 0.000000 -0.238456
vn -0.999338 0.000000 -0.036382
vn -0.946329 0.000000 0.323205
vn -0.946329 0.000000 0.323205
vn -0.946329 0.000000 0.323204
vn -0.946329 0.000000 0.323204
vn -0.313350 0.000000 0.949638
vn -0.313350 0.000000 0.949638
vn -0.313350 0.000000 0.949638
vn -0.313350 0.000000 0.949638
vn 0.248551 0.000000 0.968619
vn 0.006546 0.000000 0.999979
vn 0.006546 0.000000 0.999979
vn 0.248551 0.000000 0.968619
vn -0.006546 0.000000 -0.999979
vn -0.248543 0.000000 -0.968621
vn -0.248543 0.000000 -0.968621
vn -0.006546 0.000000 -0.999979
vn 0.313369 0.000000 -0.949631
vn 0.313369 0.000000 -0.949631
vn 0.313369 0.000000 -0.949631
vn 0.313369 0.000000 -0.949631
vn 0.946329 0.000000 -0.323204
vn 0.946329 0.000000 -0.323204
vn 0.946329 0.000000 -0.323205
vn 0.946329 0.000000 -0.323205
vn 0.971153 0.000000 0.238456
vn 0.999338 0.000000 0.036382
vn 0.999338 0.000000 0.036382
vn 0.971153 0.000000 0.238457
vn 0.998905 0.000000 -0.046776
vn 0.968620 0.000000 -0.248546
vn 0.968620 0.000000 -0.248547
vn 0.998905 0.000000 -0.046776
vn 0.949641 0.000000 0.313341
vn 0.949641 0.000000 0.313341
vn 0.949640 0.000000 0.313343
vn 0.949640 0.000000 0.313343
vn 0.323231 0.000000 0.946320
vn 0.323231 0.000000 0.946320
vn 0.323231 0.000000 0.946320
vn 0.323231 0.000000 0.946320
vn -0.238453 0.000000 0.971154
vn 0.003857 0.000000 0.999993
vn 0.003857 0.000000 0.999993
vn -0.238452 0.000000 0.971154
vn 0.998905 0.000000 -0.046777
vn 0.999338 0.000000 0.036382
vn 0.006546 0.000000 0.999979
vn 0.003857 0.000000 0.999993
vn -0.998905 0.000000 0.046777
vn -0.999338 0.000000 -0.036382
vn -0.006546 0.000000 -0.999979
vn -0.003857 0.000000 -0.999993
vn -0.000000 -1.000000 0.000000
vn -0.000001 -1.000000 0.000000
vn -0.000000 -1.000000 0.000000
vn -0.000000 -1.000000 0.000000
vn -0.000001 -1.000000 0.000000
vn -0.000000 -1.000000 0.000000
vn -0.000000 -1.000000 0.000000
vn 0.000001 -1.000000 -0.000000
vn 0.000000 -1.000000 -0.000000
vn 0.000000 -1.000000 -0.000000
vn 0.000001 -1.000000 -0.000000
vn -0.000000 -1.000000 0.000000
vn 0.238461 0.000000 -0.971152
vn -0.323212 0.000000 -0.946327
vn -0.323212 0.000000 -0.946327
vn -0.968619 0.000000 0.248551
vn -0.949639 0.000000 -0.313347
vn -0.949639 0.000000 -0.313347
vn -0.971152 0.000000 -0.238461
vn -0.946328 0.000000 0.323209
vn -0.946328 0.000000 0.323209
vn 0.248551 0.000000 0.968619
vn -0.313349 0.000000 0.949638
vn -0.313349 0.000000 0.949638
vn 0.971152 0.000000 0.238461
vn 0.946328 0.000000 -0.323209
vn 0.946328 0.000000 -0.323209
vn -0.248542 0.000000 -0.968621
vn 0.313370 0.000000 -0.949631
vn 0.313370 0.000000 -0.949631
vn -0.238452 0.000000 0.971154
vn 0.323232 0.000000 0.946320
vn 0.323232 0.000000 0.946320
vn 0.968619 0.000000 -0.248551
vn 0.949639 0.000000 0.313347
vn 0.949639 0.000000 0.313347
s off
g LIGHT_L SHOWER_LIGHTS
usemtl initialShadingGroup
f 5/1/1 6/2/2 7/3/3 8/4/4
f 1/5/5 2/6/6 6/2/7 5/1/8
f 2/6/9 3/7/10 7/3/11 6/2/12
f 3/7/13 4/8/14 8/4/15 7/3/16
f 4/8/17 1/5/18 5/1/19 8/4/20
s 1
f 1/5/21 53/34/22 54/38/23 2/6/24
f 2/6/24 58/37/25 59/33/26 3/7/27
f 3/7/27 63/31/28 64/30/29 4/8/30
f 4/8/30 68/28/31 49/36/32 1/5/21
s 5
f 13/9/33 12/44/34 15/45/35 14/10/36
s 6
f 12/44/37 11/42/38 16/46/39 15/45/40
s 7
f 11/42/41 10/40/42 17/47/43 16/46/44
s 8
f 10/40/45 9/18/46 18/11/47 17/47/48
f 23/12/49 22/53/50 26/54/51 25/13/52
s 10
f 22/53/53 21/51/54 27/55/55 26/54/56
s 11
f 21/51/57 20/49/58 28/56/59 27/55/60
s 12
f 20/49/61 19/21/62 24/14/63 28/56/64
s 5
f 32/23/65 31/60/66 35/62/67 34/22/68
s 14
f 31/60/69 30/59/70 36/64/71 35/62/72
s 15
f 30/58/73 29/57/74 37/65/75 36/63/76
s 16
f 29/57/77 33/15/78 38/24/79 37/65/80
f 42/19/81 41/69/82 45/70/83 44/20/84
s 18
f 41/69/85 40/67/86 46/71/87 45/70/88
s 19
f 40/68/89 39/66/90 47/74/91 46/72/92
s 12
f 39/66/93 43/16/94 48/17/95 47/74/96
s 8
f 9/18/46 23/12/49 25/13/52 18/11/47
s 16
f 38/24/79 33/15/78 42/19/81 44/20/84
s 12
f 19/21/62 48/17/95 43/16/94 24/14/63
s 5
f 34/22/68 13/9/33 14/10/36 32/23/65
s 16
f 38/24/79 44/20/84 54/38/97 53/34/98
s 12
f 48/25/95 19/32/62 59/33/99 58/37/100
s 8
f 23/26/49 9/29/46 64/30/101 63/31/102
s 5
f 13/27/33 34/35/68 49/36/103 68/28/104
s 1
f 1/5/21 49/36/32 50/75/105
f 1/5/21 50/75/105 51/76/106
f 1/5/21 51/76/106 52/77/107
f 1/5/21 52/77/107 53/34/22
f 2/6/24 54/38/23 55/78/108
f 2/6/24 55/78/108 56/79/109
f 2/6/24 56/79/109 57/80/110
f 2/6/24 57/80/110 58/37/25
f 3/7/27 59/33/26 60/81/111
f 3/7/27 60/81/111 61/82/112
f 3/7/27 61/82/112 62/83/113
f 3/7/27 62/83/113 63/31/28
f 4/8/30 64/30/29 65/84/114
f 4/8/30 65/84/114 66/85/115
f 4/8/30 66/85/115 67/86/116
f 4/8/30 67/86/116 68/28/31
s 5
f 12/43/34 13/27/33 68/28/104 67/86/117
s 6
f 11/41/38 12/43/37 67/86/118 66/85/119
s 8
f 9/29/46 10/39/45 65/84/120 64/30/101
s 7
f 10/39/42 11/41/41 66/85/121 65/84/122
s 8
f 22/52/50 23/26/49 63/31/102 62/83/123
s 10
f 21/50/54 22/52/53 62/83/124 61/82/125
s 12
f 19/32/62 20/48/61 60/81/126 59/33/99
s 11
f 20/48/58 21/50/57 61/82/127 60/81/128
s 16
f 37/65/80 38/24/79 53/34/98 52/77/129
s 15
f 36/63/76 37/65/75 52/77/130 51/76/131
s 5
f 34/35/68 35/61/67 50/75/132 49/36/103
s 14
f 35/61/72 36/63/71 51/76/133 50/75/134
s 12
f 47/73/96 48/25/95 58/37/100 57/80/135
s 19
f 46/71/92 47/73/91 57/80/136 56/79/137
s 16
f 44/20/84 45/70/83 55/78/138 54/38/97
s 18
f 45/70/88 46/71/87 56/79/139 55/78/140
g default
v 5.345582 9.771929 -4.722985
v 5.346432 9.771929 -4.559680
v 0.756447 9.771929 -4.535804
v 0.755598 9.771929 -4.699109
v 5.345582 9.798241 -4.722984
v 5.346431 9.798241 -4.559681
v 0.756448 9.798241 -4.535806
v 0.755599 9.798241 -4.699108
v 0.735703 9.805683 -4.679009
v 0.729424 9.805683 -4.703478
v 0.734781 9.805683 -4.719711
v 0.750957 9.805683 -4.725236
v 0.775490 9.805683 -4.719212
v 0.775490 9.898930 -4.719212
v 0.750957 9.898930 -4.725236
v 0.734781 9.898930 -4.719711
v 0.729424 9.898930 -4.703478
v 0.735703 9.898930 -4.679009
v 0.776547 9.805683 -4.515910
v 0.752079 9.805683 -4.509631
v 0.735845 9.805683 -4.514988
v 0.730321 9.805683 -4.531164
v 0.736345 9.805683 -4.555697
v 0.776547 9.898930 -4.515910
v 0.736345 9.898930 -4.555697
v 0.730321 9.898930 -4.531164
v 0.735845 9.898930 -4.514988
v 0.752079 9.898930 -4.509631
v 5.371708 9.898930 -4.727626
v 5.366184 9.898930 -4.743802
v 5.349952 9.898930 -4.749159
v 5.325482 9.898930 -4.742880
v 5.365684 9.898930 -4.703093
v 5.325482 9.805683 -4.742880
v 5.349952 9.805683 -4.749159
v 5.366184 9.805683 -4.743802
v 5.371708 9.805683 -4.727626
v 5.365684 9.805683 -4.703093
v 5.351073 9.898930 -4.533554
v 5.367248 9.898930 -4.539079
v 5.372605 9.898930 -4.555311
v 5.366326 9.898930 -4.579781
v 5.326539 9.898930 -4.539578
v 5.366326 9.805683 -4.579781
v 5.372605 9.805683 -4.555311
v 5.367248 9.805683 -4.539079
v 5.351073 9.805683 -4.533554
v 5.326539 9.805683 -4.539578
v 5.325482 9.771929 -4.742880
v 5.349952 9.771929 -4.749159
v 5.366184 9.771929 -4.743802
v 5.371708 9.771929 -4.727626
v 5.365684 9.771929 -4.703093
v 5.366326 9.771929 -4.579781
v 5.372605 9.771929 -4.555311
v 5.367248 9.771929 -4.539079
v 5.351073 9.771929 -4.533554
v 5.326539 9.771929 -4.539578
v 0.776547 9.771929 -4.515910
v 0.752079 9.771929 -4.509631
v 0.735845 9.771929 -4.514988
v 0.730321 9.771929 -4.531164
v 0.736345 9.771929 -4.555697
v 0.735703 9.771929 -4.679009
v 0.729424 9.771929 -4.703478
v 0.734781 9.771929 -4.719711
v 0.750957 9.771929 -4.725236
v 0.775490 9.771929 -4.719212
vt 0.375000 0.750000
vt 0.625000 0.750000
vt 0.625000 1.000000
vt 0.375000 1.000000
vt 0.375000 0.750000
vt 0.625000 0.750000
vt 0.625000 1.000000
vt 0.375000 1.000000
vt 0.372840 0.000000
vt 0.372840 0.250000
vt 0.424182 0.250000
vt 0.575818 0.000000
vt 0.575818 0.250000
vt 0.627160 0.250000
vt 0.424182 0.500000
vt 0.872840 0.250000
vt 0.872840 0.000000
vt 0.424182 0.000000
vt 0.575818 0.500000
vt 0.575818 0.750000
vt 0.627160 0.000000
vt 0.127160 0.000000
vt 0.127160 0.250000
vt 0.424182 0.750000
vt 0.625000 0.752160
vt 0.575818 1.000000
vt 0.375000 0.997840
vt 0.375000 0.997840
vt 0.424182 1.000000
vt 0.424182 1.000000
vt 0.575818 1.000000
vt 0.625000 0.997840
vt 0.625000 0.997840
vt 0.424182 0.750000
vt 0.375000 0.752160
vt 0.375000 0.752160
vt 0.625000 0.752160
vt 0.575818 0.750000
vt 0.394579 1.000000
vt 0.394579 0.000000
vt 0.375000 1.000000
vt 0.375000 0.000000
vt 0.375000 0.998990
vt 0.373990 0.000000
vt 0.373990 0.250000
vt 0.375000 0.250000
vt 0.394151 0.251319
vt 0.625000 0.998990
vt 0.626010 0.000000
vt 0.625000 1.000000
vt 0.625000 0.000000
vt 0.605421 1.000000
vt 0.605421 0.000000
vt 0.605849 0.251319
vt 0.625000 0.250000
vt 0.626010 0.250000
vt 0.394305 0.500160
vt 0.375000 0.500000
vt 0.125000 0.250000
vt 0.126010 0.250000
vt 0.375000 0.751010
vt 0.126010 0.000000
vt 0.375000 0.750000
vt 0.125000 0.000000
vt 0.394204 0.748283
vt 0.873990 0.250000
vt 0.625000 0.500000
vt 0.875000 0.250000
vt 0.605762 0.500206
vt 0.605797 0.748283
vt 0.625000 0.750000
vt 0.875000 0.000000
vt 0.625000 0.751010
vt 0.873990 0.000000
vt 0.375000 0.751088
vt 0.375000 0.750000
vt 0.374902 0.749979
vt 0.625098 0.749979
vt 0.625000 0.750000
vt 0.625000 0.751088
vt 0.625000 0.998912
vt 0.625000 1.000000
vt 0.625093 1.000000
vt 0.374907 1.000000
vt 0.375000 1.000000
vt 0.375000 0.998912
vn 0.000000 -1.000000 0.000000
vn 0.000000 -1.000000 0.000000
vn 0.000000 -1.000000 0.000000
vn 0.000000 -1.000000 0.000000
vn -0.999987 -0.000021 0.005202
vn -0.999987 -0.000021 0.005202
vn -0.999987 -0.000021 0.005202
vn -0.999987 -0.000021 0.005202
vn -0.005202 -0.000040 -0.999986
vn -0.005202 -0.000040 -0.999986
vn -0.005202 -0.000040 -0.999987
vn -0.005202 -0.000040 -0.999986
vn 0.999987 -0.000042 -0.005202
vn 0.999987 -0.000042 -0.005202
vn 0.999987 -0.000042 -0.005202
vn 0.999987 -0.000042 -0.005202
vn 0.005202 -0.000040 0.999986
vn 0.005202 -0.000040 0.999986
vn 0.005202 -0.000040 0.999986
vn 0.005202 -0.000040 0.999987
vn -0.000000 -1.000000 0.000000
vn -0.000000 -1.000000 0.000000
vn -0.000000 -1.000000 0.000000
vn -0.000000 -1.000000 0.000000
vn 0.000000 -1.000000 -0.000000
vn -0.000000 -1.000000 0.000000
vn 0.000000 -1.000000 -0.000000
vn -0.000000 -1.000000 0.000000
vn -0.000000 -1.000000 0.000000
vn 0.000000 -1.000000 -0.000000
vn -0.000000 -1.000000 0.000000
vn 0.000000 -1.000000 -0.000000
vn -0.003857 0.000000 -0.999993
vn 0.238461 0.000000 -0.971152
vn 0.238461 0.000000 -0.971152
vn -0.003857 0.000000 -0.999993
vn -0.323212 0.000000 -0.946327
vn -0.323212 0.000000 -0.946327
vn -0.323212 0.000000 -0.946327
vn -0.323212 0.000000 -0.946327
vn -0.949640 0.000000 -0.313343
vn -0.949640 0.000000 -0.313343
vn -0.949641 0.000000 -0.313341
vn -0.949641 0.000000 -0.313341
vn -0.968620 0.000000 0.248547
vn -0.998905 0.000000 0.046776
vn -0.998905 0.000000 0.046776
vn -0.968620 0.000000 0.248546
vn -0.999338 0.000000 -0.036382
vn -0.971153 0.000000 -0.238457
vn -0.971153 0.000000 -0.238456
vn -0.999338 0.000000 -0.036382
vn -0.946329 0.000000 0.323205
vn -0.946329 0.000000 0.323205
vn -0.946329 0.000000 0.323204
vn -0.946329 0.000000 0.323204
vn -0.313350 0.000000 0.949638
vn -0.313350 0.000000 0.949638
vn -0.313350 0.000000 0.949638
vn -0.313350 0.000000 0.949638
vn 0.248551 0.000000 0.968619
vn 0.006546 0.000000 0.999979
vn 0.006546 0.000000 0.999979
vn 0.248551 0.000000 0.968619
vn -0.006546 0.000000 -0.999979
vn -0.248543 0.000000 -0.968621
vn -0.248543 0.000000 -0.968621
vn -0.006546 0.000000 -0.999979
vn 0.313369 0.000000 -0.949631
vn 0.313369 0.000000 -0.949631
vn 0.313369 0.000000 -0.949631
vn 0.313369 0.000000 -0.949631
vn 0.946329 0.000000 -0.323204
vn 0.946329 0.000000 -0.323204
vn 0.946329 0.000000 -0.323205
vn 0.946329 0.000000 -0.323205
vn 0.971153 0.000000 0.238456
vn 0.999338 0.000000 0.036382
vn 0.999338 0.000000 0.036382
vn 0.971153 0.000000 0.238457
vn 0.998905 0.000000 -0.046776
vn 0.968620 0.000000 -0.248546
vn 0.968620 0.000000 -0.248547
vn 0.998905 0.000000 -0.046776
vn 0.949641 0.000000 0.313341
vn 0.949641 0.000000 0.313341
vn 0.949640 0.000000 0.313343
vn 0.949640 0.000000 0.313343
vn 0.323231 0.000000 0.946320
vn 0.323231 0.000000 0.946320
vn 0.323231 0.000000 0.946320
vn 0.323231 0.000000 0.946320
vn -0.238453 0.000000 0.971154
vn 0.003857 0.000000 0.999993
vn 0.003857 0.000000 0.999993
vn -0.238452 0.000000 0.971154
vn 0.998905 0.000000 -0.046777
vn 0.999338 0.000000 0.036382
vn 0.006546 0.000000 0.999979
vn 0.003857 0.000000 0.999993
vn -0.998905 0.000000 0.046777
vn -0.999338 0.000000 -0.036382
vn -0.006546 0.000000 -0.999979
vn -0.003857 0.000000 -0.999993
vn -0.000000 -1.000000 0.000000
vn -0.000001 -1.000000 0.000000
vn -0.000000 -1.000000 0.000000
vn -0.000000 -1.000000 0.000000
vn -0.000001 -1.000000 0.000000
vn -0.000000 -1.000000 0.000000
vn -0.000000 -1.000000 0.000000
vn 0.000001 -1.000000 -0.000000
vn 0.000000 -1.000000 -0.000000
vn 0.000000 -1.000000 -0.000000
vn 0.000001 -1.000000 -0.000000
vn -0.000000 -1.000000 0.000000
vn 0.238461 0.000000 -0.971152
vn -0.323212 0.000000 -0.946327
vn -0.323212 0.000000 -0.946327
vn -0.968619 0.000000 0.248551
vn -0.949639 0.000000 -0.313347
vn -0.949639 0.000000 -0.313347
vn -0.971152 0.000000 -0.238461
vn -0.946328 0.000000 0.323209
vn -0.946328 0.000000 0.323209
vn 0.248551 0.000000 0.968619
vn -0.313349 0.000000 0.949638
vn -0.313349 0.000000 0.949638
vn 0.971152 0.000000 0.238461
vn 0.946328 0.000000 -0.323209
vn 0.946328 0.000000 -0.323209
vn -0.248542 0.000000 -0.968621
vn 0.313370 0.000000 -0.949631
vn 0.313370 0.000000 -0.949631
vn -0.238452 0.000000 0.971154
vn 0.323232 0.000000 0.946320
vn 0.323232 0.000000 0.946320
vn 0.968619 0.000000 -0.248551
vn 0.949639 0.000000 0.313347
vn 0.949639 0.000000 0.313347
s off
g SHOWER_LIGHTS LIGHT_R
usemtl initialShadingGroup
f 73/87/141 74/88/142 75/89/143 76/90/144
f 69/91/145 70/92/146 74/88/147 73/87/148
f 70/92/149 71/93/150 75/89/151 74/88/152
f 71/93/153 72/94/154 76/90/155 75/89/156
f 72/94/157 69/91/158 73/87/159 76/90/160
s 1
f 69/91/161 121/120/162 122/124/163 70/92/164
f 70/92/164 126/123/165 127/119/166 71/93/167
f 71/93/167 131/117/168 132/116/169 72/94/170
f 72/94/170 136/114/171 117/122/172 69/91/161
s 5
f 81/95/173 80/130/174 83/131/175 82/96/176
s 6
f 80/130/177 79/128/178 84/132/179 83/131/180
s 7
f 79/128/181 78/126/182 85/133/183 84/132/184
s 8
f 78/126/185 77/104/186 86/97/187 85/133/188
f 91/98/189 90/139/190 94/140/191 93/99/192
s 10
f 90/139/193 89/137/194 95/141/195 94/140/196
s 11
f 89/137/197 88/135/198 96/142/199 95/141/200
s 12
f 88/135/201 87/107/202 92/100/203 96/142/204
s 5
f 100/109/205 99/146/206 103/148/207 102/108/208
s 14
f 99/146/209 98/145/210 104/150/211 103/148/212
s 15
f 98/144/213 97/143/214 105/151/215 104/149/216
s 16
f 97/143/217 101/101/218 106/110/219 105/151/220
f 110/105/221 109/155/222 113/156/223 112/106/224
s 18
f 109/155/225 108/153/226 114/157/227 113/156/228
s 19
f 108/154/229 107/152/230 115/160/231 114/158/232
s 12
f 107/152/233 111/102/234 116/103/235 115/160/236
s 8
f 77/104/186 91/98/189 93/99/192 86/97/187
s 16
f 106/110/219 101/101/218 110/105/221 112/106/224
s 12
f 87/107/202 116/103/235 111/102/234 92/100/203
s 5
f 102/108/208 81/95/173 82/96/176 100/109/205
s 16
f 106/110/219 112/106/224 122/124/237 121/120/238
s 12
f 116/111/235 87/118/202 127/119/239 126/123/240
s 8
f 91/112/189 77/115/186 132/116/241 131/117/242
s 5
f 81/113/173 102/121/208 117/122/243 136/114/244
s 1
f 69/91/161 117/122/172 118/161/245
f 69/91/161 118/161/245 119/162/246
f 69/91/161 119/162/246 120/163/247
f 69/91/161 120/163/247 121/120/162
f 70/92/164 122/124/163 123/164/248
f 70/92/164 123/164/248 124/165/249
f 70/92/164 124/165/249 125/166/250
f 70/92/164 125/166/250 126/123/165
f 71/93/167 127/119/166 128/167/251
f 71/93/167 128/167/251 129/168/252
f 71/93/167 129/168/252 130/169/253
f 71/93/167 130/169/253 131/117/168
f 72/94/170 132/116/169 133/170/254
f 72/94/170 133/170/254 134/171/255
f 72/94/170 134/171/255 135/172/256
f 72/94/170 135/172/256 136/114/171
s 5
f 80/129/174 81/113/173 136/114/244 135/172/257
s 6
f 79/127/178 80/129/177 135/172/258 134/171/259
s 8
f 77/115/186 78/125/185 133/170/260 132/116/241
s 7
f 78/125/182 79/127/181 134/171/261 133/170/262
s 8
f 90/138/190 91/112/189 131/117/242 130/169/263
s 10
f 89/136/194 90/138/193 130/169/264 129/168/265
s 12
f 87/118/202 88/134/201 128/167/266 127/119/239
s 11
f 88/134/198 89/136/197 129/168/267 128/167/268
s 16
f 105/151/220 106/110/219 121/120/238 120/163/269
s 15
f 104/149/216 105/151/215 120/163/270 119/162/271
s 5
f 102/121/208 103/147/207 118/161/272 117/122/243
s 14
f 103/147/212 104/149/211 119/162/273 118/161/274
s 12
f 115/159/236 116/111/235 126/123/240 125/166/275
s 19
f 114/157/232 115/159/231 125/166/276 124/165/277
s 16
f 112/106/224 113/156/223 123/164/278 122/124/237
s 18
f 113/156/228 114/157/227 124/165/279 123/164/280
