# This file uses centimeters as units for non-parametric coordinates.

mtllib bathroom_Counter_Tap.mtl
g default
v -5.809465 3.086119 1.526142
v -5.653371 3.086119 1.526142
v -5.756235 3.240988 1.526142
v -5.653371 3.240988 1.526142
v -5.756235 3.240988 1.343887
v -5.653371 3.240988 1.343887
v -5.809465 3.086119 1.343887
v -5.653371 3.086119 1.343887
v -5.742243 3.289501 1.526142
v -5.653371 3.327436 1.504380
v -5.653371 3.327436 1.365649
v -5.742243 3.289501 1.343887
v -5.520352 3.282403 1.506142
v -5.520352 3.282403 1.363887
v -5.520352 3.340926 1.363887
v -5.520352 3.340926 1.506142
v -5.307084 3.282403 1.487716
v -5.307084 3.282403 1.382313
v -5.341837 3.340926 1.382313
v -5.341837 3.340926 1.487716
vt 0.375000 0.000000
vt 0.625000 0.000000
vt 0.375000 0.250000
vt 0.625000 0.250000
vt 0.375000 0.500000
vt 0.625000 0.500000
vt 0.375000 0.750000
vt 0.625000 0.750000
vt 0.375000 1.000000
vt 0.625000 1.000000
vt 0.875000 0.000000
vt 0.875000 0.250000
vt 0.125000 0.000000
vt 0.125000 0.250000
vt 0.375000 0.250000
vt 0.625000 0.250000
vt 0.625000 0.500000
vt 0.375000 0.500000
vt 0.625000 0.250000
vt 0.625000 0.500000
vt 0.625000 0.500000
vt 0.625000 0.250000
vt 0.625000 0.250000
vt 0.625000 0.500000
vt 0.625000 0.500000
vt 0.625000 0.250000
vn 0.000000 0.000000 1.000000
vn 0.000000 0.000000 1.000000
vn 0.000000 0.000000 1.000000
vn 0.035784 0.065552 0.997207
vn -0.392582 0.919717 0.000000
vn -0.392582 0.919717 0.000000
vn -0.392582 0.919717 0.000000
vn -0.392582 0.919717 0.000000
vn 0.035783 0.065552 -0.997207
vn 0.000000 0.000000 -1.000000
vn 0.000000 0.000000 -1.000000
vn 0.000000 0.000000 -1.000000
vn 0.000000 -1.000000 0.000000
vn 0.000000 -1.000000 0.000000
vn 0.000000 -1.000000 0.000000
vn 0.000000 -1.000000 0.000000
vn 1.000000 0.000000 0.000000
vn 1.000000 0.000000 0.000000
vn 0.846019 -0.479815 0.232443
vn 0.858872 -0.452721 -0.239546
vn -0.945697 0.325049 0.000000
vn -0.945697 0.325049 0.000000
vn -0.949481 0.313824 0.000000
vn -0.949481 0.313824 0.000000
vn 0.051227 0.093844 0.994268
vn 0.132089 0.241976 0.961249
vn 0.859828 0.510583 0.000000
vn 0.859828 0.510584 0.000000
vn 0.859828 0.510584 0.000000
vn 0.859828 0.510584 0.000000
vn 0.051227 0.093844 -0.994268
vn 0.132089 0.241976 -0.961249
vn -0.960837 0.277113 0.000000
vn -0.960837 0.277113 0.000000
vn 0.286714 -0.870079 0.400945
vn 0.282745 -0.852404 -0.439845
vn -0.049587 0.879248 -0.473777
vn -0.098617 0.924267 -0.368790
vn -0.049975 0.880744 0.470949
vn -0.098688 0.925322 0.366115
vn 0.000000 -1.000000 0.000000
vn 0.000000 -1.000000 0.000000
vn 0.000000 -1.000000 0.000000
vn 0.000000 -1.000000 0.000000
vn 0.102674 0.000000 -0.994715
vn 0.087298 0.047013 -0.995072
vn 0.100042 0.008102 -0.994950
vn 0.085967 0.051049 -0.994989
vn 0.000000 1.000000 0.000000
vn 0.000000 1.000000 0.000000
vn 0.000000 1.000000 0.000000
vn 0.000000 1.000000 0.000000
vn 0.102674 0.000000 0.994715
vn 0.100042 0.008102 0.994950
vn 0.087298 0.047013 0.995072
vn 0.085967 0.051049 0.994989
s 1
g TAP_MESH
usemtl initialShadingGroup
f 1/1/1 2/2/2 3/3/3
f 3/3/3 2/2/2 4/4/4
s 2
f 9/15/5 10/16/6 12/18/7
f 12/18/7 10/16/6 11/17/8
s 3
f 6/6/9 8/8/10 5/5/11
f 5/5/11 8/8/10 7/7/12
s 4
f 7/7/13 8/8/14 1/9/15
f 1/9/15 8/8/14 2/10/16
s 5
f 2/2/17 8/11/18 4/4/19
f 4/4/19 8/11/18 6/12/20
s 6
f 7/13/21 1/1/22 5/14/23
f 5/14/23 1/1/22 3/3/24
s 1
f 3/3/3 4/4/4 9/15/25
f 9/15/25 4/4/4 10/16/26
s 7
f 17/23/27 18/24/28 20/26/29
f 20/26/29 18/24/28 19/25/30
s 3
f 5/5/11 12/18/31 6/6/9
f 6/6/9 12/18/31 11/17/32
s 6
f 5/5/23 3/3/24 12/18/33
f 12/18/33 3/3/24 9/15/34
s 5
f 4/4/19 6/6/20 13/19/35
f 13/19/35 6/6/20 14/20/36
f 6/6/20 11/17/37 14/20/36
f 14/20/36 11/17/37 15/21/38
f 11/17/37 10/16/39 15/21/38
f 15/21/38 10/16/39 16/22/40
f 4/4/19 13/19/35 10/16/39
f 10/16/39 13/19/35 16/22/40
s 8
f 13/19/41 14/20/42 17/23/43
f 17/23/43 14/20/42 18/24/44
s 9
f 15/21/45 19/25/46 14/20/47
f 14/20/47 19/25/46 18/24/48
s 10
f 15/21/49 16/22/50 19/25/51
f 19/25/51 16/22/50 20/26/52
s 11
f 16/22/53 13/19/54 20/26/55
f 20/26/55 13/19/54 17/23/56
