# This file uses centimeters as units for non-parametric coordinates.

mtllib bathroom_Walls.mtl
g default
v -7.030846 9.871293 10.878973
v 7.030846 9.871293 10.878973
v -7.030846 9.871293 -7.572151
v 7.030846 9.871293 -7.572151
v -6.942969 0.052165 10.878973
v -7.007299 0.116495 10.878973
v -7.030846 0.204372 10.878973
v -6.855093 0.028619 10.878973
v -7.007299 0.116495 -7.572151
v -6.942969 0.052165 -7.572151
v -6.855093 0.028619 -7.572151
v -7.030846 0.204372 -7.572151
v 7.007299 0.116495 10.878973
v 6.942969 0.052165 10.878973
v 6.855093 0.028619 10.878973
v 7.030846 0.204372 10.878973
v 6.942969 0.052165 -7.572151
v 7.007299 0.116495 -7.572151
v 7.030846 0.204372 -7.572151
v 6.855093 0.028619 -7.572151
vt 0.625000 0.500000
vt 0.125000 0.004464
vt 0.125000 0.250000
vt 0.375000 0.250000
vt 0.378125 1.000000
vt 0.625000 0.004464
vt 0.875000 0.250000
vt 0.375000 0.004464
vt 0.378125 0.750000
vt 0.621875 1.000000
vt 0.875000 0.004464
vt 0.621875 0.987501
vt 0.378125 0.012499
vt 0.625000 0.250000
vt 0.625000 0.986608
vt 0.625000 0.745536
vt 0.375000 0.500000
vt 0.375000 0.745536
vt 0.621875 0.750000
vt 0.376719 0.012429
vt 0.376519 0.487000
vt 0.375390 0.012364
vt 0.375000 0.001985
vt 0.375000 0.750000
vt 0.125000 0.000000
vt 0.376506 0.749998
vt 0.625000 1.000000
vt 0.625000 0.000000
vt 0.625000 1.000000
vt 0.623481 0.993926
vt 0.623481 1.000000
vt 0.623557 0.750211
vt 0.875000 0.000000
vt 0.625000 0.750000
vn 0.000000 -1.000000 0.000000
vn 0.000000 -1.000000 0.000000
vn 0.000000 -1.000000 0.000000
vn 0.000000 -1.000000 0.000000
vn 0.001706 0.999999 0.000000
vn 0.001706 0.999999 0.000000
vn -0.001706 0.999999 0.000000
vn -0.001706 0.999999 0.000000
vn -0.999997 0.002414 0.000000
vn -0.999997 0.002414 0.000000
vn -1.000000 0.000000 0.000000
vn -1.000000 0.000000 0.000000
vn 0.999997 0.002414 0.000000
vn 0.999997 0.002414 0.000000
vn 1.000000 0.000000 0.000000
vn 1.000000 0.000000 0.000000
vn 0.866023 0.500004 0.000000
vn 0.866027 0.499997 0.000000
vn 0.707107 0.707107 0.000000
vn 0.707107 0.707107 0.000000
vn 0.258817 0.965926 0.000000
vn 0.258813 0.965927 0.000000
vn -0.258813 0.965927 0.000000
vn -0.258817 0.965926 0.000000
vn -0.707107 0.707107 0.000000
vn -0.866027 0.499997 0.000000
vn -0.707107 0.707107 0.000000
vn -0.866023 0.500004 0.000000
vn 0.000000 0.000000 -1.000000
vn -0.000000 0.000000 -1.000000
vn -0.000000 0.000000 -1.000000
vn 0.000000 0.000000 -1.000000
vn 0.000005 0.000000 -1.000000
vn 0.000001 0.000000 -1.000000
vn -0.000000 0.000000 -1.000000
vn -0.000021 0.000000 -1.000000
vn -0.000001 0.000000 -1.000000
vn 0.000004 0.000000 -1.000000
vn 0.000000 0.000000 1.000000
vn 0.000000 0.000000 1.000000
vn 0.000000 0.000000 1.000000
vn 0.000003 0.000000 1.000000
vn 0.000001 0.000000 1.000000
vn -0.000000 0.000000 1.000000
vn 0.000000 0.000000 1.000000
vn 0.000010 0.000000 1.000000
vn -0.000012 0.000000 1.000000
vn 0.000000 0.000000 1.000000
s 1
g Walls
usemtl initialShadingGroup
f 1/4/1 3/17/2 2/14/3
f 2/14/3 3/17/2 4/1/4
s 2
f 11/9/5 8/5/6 20/19/7
f 20/19/7 8/5/6 15/10/8
s 3
f 19/11/9 16/6/10 4/7/11
f 4/7/11 16/6/10 2/14/12
s 4
f 7/8/13 12/2/14 1/4/15
f 1/4/15 12/2/14 3/3/16
f 7/8/13 6/22/17 12/2/14
f 12/2/14 6/22/17 9/25/18
f 6/23/17 5/21/19 9/24/18
f 9/24/18 5/21/19 10/26/20
s 2
f 5/21/21 8/5/6 10/26/22
f 10/26/22 8/5/6 11/9/5
f 15/10/8 14/31/23 20/19/7
f 20/19/7 14/31/23 17/32/24
s 3
f 14/31/25 13/29/26 17/32/27
f 17/32/27 13/29/26 18/34/28
f 13/28/26 16/6/10 18/33/28
f 18/33/28 16/6/10 19/11/9
s 6
g WallsShapeHiddenFacesSet defaultHideFaceDataSet Walls
f 1/4/29 2/14/30 7/8/31
f 7/8/31 2/14/30 6/22/32
f 6/22/32 2/14/30 5/20/33
f 5/20/33 2/14/30 8/13/34
f 8/13/34 2/14/30 15/12/35
f 15/12/35 2/14/30 14/30/36
f 14/30/36 2/14/30 13/27/37
f 13/27/37 2/14/30 16/15/38
s 7
g Walls
f 4/1/39 3/17/40 19/16/41
f 19/16/41 3/17/40 18/34/42
f 18/34/42 3/17/40 17/32/43
f 17/32/43 3/17/40 20/19/44
f 20/19/44 3/17/40 11/9/45
f 11/9/45 3/17/40 10/26/46
f 10/26/46 3/17/40 9/24/47
f 3/17/40 12/18/48 9/24/47
