# This file uses centimeters as units for non-parametric coordinates.

mtllib bathroom_Counter.mtl
g default
v -3.607903 2.470503 -0.016643
v -3.607903 2.470503 6.126413
v -3.607903 0.018578 6.126413
v -3.607903 0.018578 -0.016643
v -3.616198 3.113930 -0.015894
v -3.607903 3.083022 6.126413
v -3.607903 3.082996 -0.016643
v -3.669818 3.144863 -0.011055
v -3.638823 3.136578 6.123367
v -3.638860 3.136575 -0.013849
v -3.616188 3.113943 6.125597
v -4.080003 3.144863 3.242248
v -4.080003 3.144863 0.382627
v -5.509428 3.144863 3.242248
v -3.666115 2.526132 -0.010909
v -3.666115 2.526132 6.120679
v -3.666115 2.470503 6.120679
v -3.666115 2.470503 -0.010909
v -3.607903 2.526132 -0.016643
v -3.607903 2.526132 6.126413
v -3.669744 3.144863 6.120322
v -7.047331 2.526132 6.814230
v -7.047331 2.470503 6.814230
v -7.047331 2.470503 6.755452
v -7.047331 2.526132 6.755452
v -7.047331 0.018578 6.814230
v -4.295720 0.018578 6.814230
v -4.295720 2.470503 6.814230
v -4.035737 3.113943 6.754068
v -4.032504 3.083022 6.761872
v -3.815334 3.113943 6.606799
v -4.044569 3.136578 6.732746
v -3.831653 3.136578 6.590481
v -3.809360 3.083022 6.612773
v -4.301455 2.470503 6.756017
v -4.301455 2.526132 6.756017
v -4.295720 2.526132 6.814230
v -4.032504 0.018578 6.761872
v -4.032504 2.470503 6.761872
v -3.660259 0.018578 6.389629
v -3.660259 2.470503 6.389629
v -4.295720 3.083022 6.814230
v -7.047331 3.083022 6.814230
v -3.809360 0.018578 6.612773
v -3.809360 2.470503 6.612773
v -7.047331 3.144863 6.752389
v -7.047331 3.136578 6.783310
v -4.298766 3.136578 6.783310
v -4.301811 3.144863 6.752389
v -7.047331 3.113943 6.805945
v -4.296536 3.113943 6.805945
v -4.054565 2.470503 6.708612
v -4.054565 2.526132 6.708612
v -3.713520 2.470503 6.367569
v -3.713520 2.526132 6.367569
v -4.032504 2.526132 6.761872
v -3.660259 2.526132 6.389629
v -3.850124 2.470503 6.572009
v -3.850124 2.526132 6.572009
v -3.809360 2.526132 6.612773
v -3.660259 3.083022 6.389629
v -4.056633 3.144863 6.703620
v -3.718512 3.144863 6.365500
v -3.689386 3.136578 6.377564
v -3.668065 3.113943 6.386396
v -3.853945 3.144863 6.568189
v -5.509428 3.144863 0.382627
v -4.301811 3.144863 -0.642618
v -7.047331 3.144863 -0.642618
v -3.718662 3.144863 -0.256226
v -3.854295 3.144863 -0.458848
v -4.057177 3.144863 -0.594143
v -3.668084 3.113942 -0.276693
v -3.689461 3.136578 -0.268043
v -3.660259 3.083021 -0.279859
v -3.831828 3.136578 -0.480925
v -3.815381 3.113942 -0.497088
v -3.809360 3.083021 -0.503003
v -4.044840 3.136578 -0.623123
v -4.035810 3.113942 -0.644338
v -4.032504 3.083021 -0.652103
v -4.298766 3.136578 -0.673539
v -4.296536 3.113943 -0.696175
v -4.295720 3.083022 -0.704459
v -3.660259 2.526132 -0.279859
v -3.713520 2.526132 -0.257799
v -3.809360 2.526132 -0.503003
v -3.713520 2.470503 -0.257799
v -3.660259 2.470503 -0.279859
v -3.850124 2.526132 -0.462240
v -3.850124 2.470503 -0.462240
v -3.809360 2.470503 -0.503003
v -4.032504 2.526132 -0.652103
v -4.054565 2.526132 -0.598843
v -4.054565 2.470503 -0.598843
v -4.032504 2.470503 -0.652103
v -4.295720 2.526132 -0.704459
v -4.301455 2.526132 -0.646247
v -4.301455 2.470503 -0.646247
v -4.295720 2.470503 -0.704459
v -3.660259 0.018578 -0.279859
v -3.809360 0.018578 -0.503003
v -7.047331 3.136578 -0.673539
v -7.047331 3.113943 -0.696175
v -4.032504 0.018578 -0.652103
v -7.047331 3.083022 -0.704459
v -7.047331 2.526132 -0.704459
v -4.295720 0.018578 -0.704459
v -7.047331 2.526132 -0.645682
v -7.047331 2.470503 -0.645682
v -7.047331 2.470503 -0.704459
v -7.047331 0.018578 -0.704459
vt 0.852130 0.196073
vt 0.647870 0.196073
vt 0.647870 0.000000
vt 0.852130 0.000000
vt 0.852134 0.247571
vt 0.647870 0.245055
vt 0.852130 0.245053
vt 0.624172 0.477148
vt 0.625000 0.272870
vt 0.625000 0.477130
vt 0.852130 0.250000
vt 0.647862 0.247571
vt 0.852130 0.200522
vt 0.647870 0.200522
vt 0.647870 0.196073
vt 0.852130 0.196073
vt 0.852130 0.200522
vt 0.647870 0.200522
vt 0.625000 0.272256
vt 0.647870 0.250000
vt 0.375000 0.200522
vt 0.375000 0.196073
vt 0.375000 0.196073
vt 0.375000 0.200522
vt 0.375000 0.000000
vt 0.575005 0.000000
vt 0.575005 0.196073
vt 0.601271 0.247578
vt 0.601707 0.244388
vt 0.625456 0.247784
vt 0.600308 0.250078
vt 0.625000 0.250000
vt 0.625000 0.245055
vt 0.575005 0.196073
vt 0.575005 0.200522
vt 0.575005 0.200522
vt 0.601710 0.000000
vt 0.601708 0.195540
vt 0.638794 0.000000
vt 0.638794 0.196073
vt 0.575005 0.245055
vt 0.375000 0.245055
vt 0.625000 0.000000
vt 0.625000 0.196073
vt 0.375000 0.252056
vt 0.375000 0.250675
vt 0.574792 0.250670
vt 0.574562 0.252056
vt 0.375000 0.248228
vt 0.574958 0.248225
vt 0.601708 0.195540
vt 0.601708 0.199976
vt 0.638794 0.196073
vt 0.638794 0.200522
vt 0.601708 0.199976
vt 0.638794 0.200522
vt 0.625000 0.196073
vt 0.625000 0.200522
vt 0.625000 0.200522
vt 0.638794 0.245055
vt 0.599263 0.251511
vt 0.625000 0.262067
vt 0.625000 0.263794
vt 0.639178 0.247642
vt 0.638794 0.250000
vt 0.620105 0.252458
vt 0.594265 0.368478
vt 0.488576 0.368632
vt 0.488090 0.464012
vt 0.574562 0.497944
vt 0.375000 0.497944
vt 0.624660 0.487645
vt 0.620383 0.497411
vt 0.599551 0.497527
vt 0.594459 0.464352
vt 0.860933 0.247732
vt 0.625000 0.486206
vt 0.861206 0.245055
vt 0.861206 0.250000
vt 0.628539 0.488999
vt 0.872913 0.245803
vt 0.875000 0.245055
vt 0.871076 0.246461
vt 0.601265 0.498578
vt 0.603132 0.497627
vt 0.629197 0.489519
vt 0.604724 0.496606
vt 0.629945 0.490109
vt 0.574793 0.499333
vt 0.574961 0.501774
vt 0.575005 0.504945
vt 0.861206 0.200522
vt 0.861206 0.200522
vt 0.875000 0.200522
vt 0.861206 0.196073
vt 0.861206 0.196073
vt 0.875000 0.200522
vt 0.875000 0.196073
vt 0.875000 0.196073
vt 0.674478 0.401044
vt 0.628443 0.469854
vt 0.674478 0.401044
vt 0.628443 0.469854
vt 0.678927 0.392147
vt 0.630812 0.467181
vt 0.678927 0.392147
vt 0.630812 0.467181
vt 0.575005 0.549478
vt 0.575005 0.549478
vt 0.575005 0.553927
vt 0.575005 0.553927
vt 0.861206 0.000000
vt 0.875000 0.000000
vt 0.375000 0.499325
vt 0.375000 0.501772
vt 0.735246 0.349391
vt 0.375000 0.504945
vt 0.375000 0.549478
vt 0.575005 0.750000
vt 0.375000 0.549478
vt 0.375000 0.553927
vt 0.375000 0.553927
vt 0.375000 0.750000
vn 0.999967 -0.000000 -0.008172
vn 0.999967 0.000000 0.008172
vn 0.999967 0.000000 -0.008172
vn 0.999967 0.000000 0.008172
vn 0.999870 0.013883 0.008168
vn 0.999870 0.013912 -0.008168
vn 0.965845 0.259004 0.007823
vn 0.869563 0.493773 -0.006979
vn 0.512115 0.858907 0.004016
vn 0.510943 0.859605 -0.004030
vn 0.064599 0.997911 0.000493
vn 0.051561 0.998670 -0.000400
vn 0.706816 0.707376 0.005597
vn 0.999972 0.000000 -0.007432
vn 0.999972 0.000000 0.007432
vn 0.999972 0.000000 -0.007432
vn 0.999972 0.000000 0.007432
vn 0.000000 1.000000 -0.000000
vn 0.000000 1.000000 0.000000
vn 0.000000 1.000000 -0.000000
vn 0.000000 1.000000 0.000000
vn 0.000000 -1.000000 -0.000000
vn 0.000000 -1.000000 0.000000
vn 0.000000 -1.000000 -0.000000
vn 0.000000 -1.000000 0.000000
vn 1.000000 0.000000 0.000000
vn 1.000000 0.000000 0.000000
vn 1.000000 0.000000 0.000000
vn 1.000000 0.000000 0.000000
vn 0.999967 0.000000 0.008173
vn 0.999967 0.000000 -0.008172
vn 0.000000 0.000000 1.000000
vn 0.017364 0.000000 0.999849
vn 0.000000 0.000000 1.000000
vn 0.017364 0.000000 0.999849
vn 0.616825 0.488919 0.616834
vn 0.333176 0.491446 0.804658
vn 0.707038 0.013775 0.707041
vn 0.382647 0.013922 0.923790
vn 0.495138 0.713909 0.495148
vn 0.267722 0.713937 0.647008
vn -0.000206 0.000000 1.000000
vn 0.015649 0.000000 0.999878
vn -0.000206 0.000000 1.000000
vn 0.015649 0.000000 0.999878
vn 0.000000 1.000000 -0.000000
vn 0.000000 1.000000 -0.000000
vn 0.000000 1.000000 0.000000
vn 0.000000 1.000000 0.000000
vn 0.000000 -1.000000 0.000004
vn 0.000000 -1.000000 0.000000
vn 0.000000 -1.000000 0.000004
vn 0.000000 -1.000000 0.000000
vn 0.382681 0.000000 0.923880
vn 0.382686 0.000000 0.923878
vn 0.923879 0.000000 0.382685
vn 0.923879 0.000000 0.382684
vn 0.000000 0.000000 1.000000
vn 0.017364 0.000000 0.999849
vn 0.000000 0.014089 0.999901
vn 0.017356 0.013887 0.999753
vn 0.707104 0.000000 0.707110
vn 0.707106 0.000000 0.707108
vn 0.000000 0.999997 0.002421
vn 0.000000 0.965932 0.258796
vn 0.000044 0.999996 0.002719
vn 0.004222 0.966021 0.258428
vn 0.000000 0.258802 0.965930
vn 0.014851 0.493161 0.869811
vn 0.000000 0.707102 0.707111
vn 0.000000 0.707102 0.707111
vn 0.011887 0.707645 0.706469
vn 0.377530 0.000000 0.925997
vn 0.377530 0.000000 0.925997
vn 0.925997 0.000000 0.377531
vn 0.925997 0.000000 0.377531
vn 0.000000 1.000000 -0.000006
vn 0.000000 1.000000 -0.000005
vn 0.000000 1.000000 0.000000
vn 0.000000 1.000000 -0.000000
vn 0.000000 -1.000000 0.000000
vn 0.000000 -1.000000 0.000000
vn 0.000000 -1.000000 0.000001
vn 0.000000 -1.000000 0.000001
vn 0.707104 0.000000 0.707110
vn 0.707103 0.000000 0.707110
vn 0.000000 1.000000 0.000000
vn 0.000000 1.000000 0.000000
vn 0.000000 -1.000000 0.000002
vn 0.000000 -1.000000 0.000001
vn 0.382683 0.000000 0.923880
vn 0.923879 0.000000 0.382686
vn 0.923790 0.013924 0.382647
vn 0.707105 0.000000 0.707109
vn 0.001221 0.999995 0.002998
vn 0.095945 0.967159 0.235368
vn 0.005176 0.999984 0.002136
vn 0.234936 0.967160 0.096985
vn 0.804656 0.491450 0.333174
vn 0.647025 0.713921 0.267724
vn 0.002749 0.999992 0.002775
vn 0.178929 0.967158 0.180525
vn 0.000167 0.999947 -0.010332
vn 0.000000 0.999996 -0.002756
vn 0.000000 1.000000 -0.000000
vn 0.000000 1.000000 0.000000
vn 0.000000 1.000000 0.000000
vn 0.000000 1.000000 -0.000000
vn 0.004164 0.999939 -0.010270
vn 0.009205 0.999914 -0.009320
vn 0.015474 0.999860 -0.006409
vn 0.647070 0.713657 -0.268318
vn 0.804856 0.491159 -0.333121
vn 0.235204 0.967109 -0.096843
vn 0.923793 0.013914 -0.382639
vn 0.179228 0.967093 -0.180579
vn 0.615344 0.489747 -0.617656
vn 0.493252 0.713640 -0.497414
vn 0.707007 0.013835 -0.707071
vn 0.096278 0.967083 -0.235543
vn 0.332031 0.489856 -0.806100
vn 0.265101 0.713598 -0.648459
vn 0.382605 0.013833 -0.923808
vn 0.004199 0.966021 -0.258429
vn 0.014831 0.493181 -0.869800
vn 0.011852 0.707637 -0.706477
vn 0.017355 0.013884 -0.999753
vn 0.923878 0.000000 -0.382687
vn 0.000000 -1.000000 -0.000000
vn 0.000000 -1.000000 -0.000000
vn 0.707107 0.000000 -0.707107
vn 0.925997 0.000000 -0.377530
vn 0.925998 0.000000 -0.377529
vn 0.000000 1.000000 0.000000
vn 0.000000 1.000000 0.000000
vn 0.000000 -1.000000 -0.000001
vn 0.000000 -1.000000 -0.000000
vn 0.707106 0.000000 -0.707108
vn 0.707106 0.000000 -0.707107
vn 0.000000 1.000000 0.000001
vn 0.000000 1.000000 0.000000
vn 0.382682 0.000000 -0.923880
vn 0.000000 -1.000000 0.000000
vn 0.000000 -1.000000 -0.000000
vn 0.377526 0.000000 -0.925999
vn 0.377527 0.000000 -0.925999
vn 0.000000 1.000000 0.000002
vn 0.000000 1.000000 0.000002
vn 0.017364 0.000000 -0.999849
vn 0.000000 -1.000000 -0.000006
vn 0.000000 -1.000000 -0.000005
vn 0.015649 0.000000 -0.999878
vn 0.015649 0.000000 -0.999878
vn 0.000000 1.000000 -0.000001
vn 0.000000 1.000000 -0.000001
vn 0.923879 -0.000000 -0.382684
vn 0.923879 -0.000000 -0.382684
vn 0.707106 0.000000 -0.707107
vn 0.707107 0.000000 -0.707107
vn 0.000000 0.965932 -0.258796
vn 0.000000 0.707099 -0.707115
vn 0.000000 0.499860 -0.866106
vn 0.382682 0.000000 -0.923880
vn 0.382682 0.000000 -0.923880
vn 0.000000 0.014093 -0.999901
vn 0.000000 0.000000 -1.000000
vn 0.017364 0.000000 -0.999849
vn 0.017364 0.000000 -0.999849
vn 0.000000 -1.000000 -0.000000
vn 0.000000 -1.000000 0.000000
vn -0.000206 0.000000 -1.000000
vn -0.000206 0.000000 -1.000000
vn 0.000000 1.000000 -0.000000
vn 0.000000 1.000000 0.000000
vn 0.000000 0.000000 -1.000000
vn 0.000000 0.000000 -1.000000
vn 1.000000 0.000000 0.000000
vn 1.000000 0.000000 0.000000
vn 1.000000 0.000000 0.000000
vn 1.000000 0.000000 0.000000
s 1
g COUNTER_MESH1
usemtl initialShadingGroup
f 1/1/1 2/2/2 4/4/3
f 4/4/3 2/2/2 3/3/4
s 2
f 6/6/5 7/7/6 11/12/7
f 11/12/7 7/7/6 5/5/8
f 9/9/9 10/10/10 21/19/11
f 21/19/11 10/10/10 8/8/12
f 11/12/13 5/5/8 9/20/9
f 9/20/9 5/5/8 10/11/10
s 4
f 15/13/14 16/14/15 18/16/16
f 18/16/16 16/14/15 17/15/17
s 5
f 2/2/18 1/1/19 17/15/20
f 17/15/20 1/1/19 18/16/21
s 6
f 19/17/22 20/18/23 15/13/24
f 15/13/24 20/18/23 16/14/25
s 7
f 22/21/26 23/22/27 25/24/28
f 25/24/28 23/22/27 24/23/29
s 2
f 6/6/5 20/18/30 7/7/6
f 7/7/6 20/18/30 19/17/31
s 1
f 26/25/32 27/26/33 23/22/34
f 23/22/34 27/26/33 28/27/35
s 2
f 31/30/36 29/28/37 34/33/38
f 34/33/38 29/28/37 30/29/39
f 33/32/40 32/31/41 31/30/36
f 31/30/36 32/31/41 29/28/37
s 4
f 24/23/42 35/34/43 25/24/44
f 25/24/44 35/34/43 36/35/45
s 5
f 28/27/46 35/34/47 23/22/48
f 23/22/48 35/34/47 24/23/49
s 6
f 37/36/50 22/21/51 36/35/52
f 36/35/52 22/21/51 25/24/53
s 1
f 27/26/33 38/37/54 28/27/35
f 28/27/35 38/37/54 39/38/55
f 40/39/56 3/3/4 41/40/57
f 41/40/57 3/3/4 2/2/2
s 2
f 22/21/58 37/36/59 43/42/60
f 43/42/60 37/36/59 42/41/61
s 1
f 38/37/54 44/43/62 39/38/55
f 39/38/55 44/43/62 45/44/63
f 44/43/62 40/39/56 45/44/63
f 45/44/63 40/39/56 41/40/57
s 2
f 46/45/64 47/46/65 49/48/66
f 49/48/66 47/46/65 48/47/67
f 50/49/68 43/42/60 51/50/69
f 51/50/69 43/42/60 42/41/61
f 47/46/70 50/49/71 48/47/72
f 48/47/72 50/49/71 51/50/69
s 4
f 35/34/43 52/51/73 36/35/45
f 36/35/45 52/51/73 53/52/74
f 54/53/75 17/15/17 55/54/76
f 55/54/76 17/15/17 16/14/15
s 5
f 39/38/77 52/51/78 28/27/46
f 28/27/46 52/51/78 35/34/47
f 41/40/79 2/2/18 54/53/80
f 54/53/80 2/2/18 17/15/20
s 6
f 56/55/81 37/36/50 53/52/82
f 53/52/82 37/36/50 36/35/52
f 57/56/83 55/54/84 20/18/23
f 20/18/23 55/54/84 16/14/25
s 4
f 52/51/73 58/57/85 53/52/74
f 53/52/74 58/57/85 59/58/86
f 58/57/85 54/53/75 59/58/86
f 59/58/86 54/53/75 55/54/76
s 5
f 39/38/77 45/44/87 52/51/78
f 52/51/78 45/44/87 58/57/88
f 45/44/87 41/40/79 58/57/88
f 58/57/88 41/40/79 54/53/80
s 6
f 60/59/89 56/55/81 59/58/90
f 59/58/90 56/55/81 53/52/82
f 57/56/83 60/59/89 55/54/84
f 55/54/84 60/59/89 59/58/90
s 2
f 37/36/59 56/55/91 42/41/61
f 42/41/61 56/55/91 30/29/39
f 57/56/92 20/18/30 61/60/93
f 61/60/93 20/18/30 6/6/5
f 56/55/91 60/59/94 30/29/39
f 30/29/39 60/59/94 34/33/38
f 60/59/94 57/56/92 34/33/38
f 34/33/38 57/56/92 61/60/93
f 49/48/66 48/47/67 62/61/95
f 62/61/95 48/47/67 32/31/96
f 21/19/11 63/62/97 9/9/9
f 9/9/9 63/62/97 64/63/98
f 51/50/69 42/41/61 29/28/37
f 29/28/37 42/41/61 30/29/39
f 11/12/7 65/64/99 6/6/5
f 6/6/5 65/64/99 61/60/93
f 48/47/72 51/50/69 32/31/41
f 32/31/41 51/50/69 29/28/37
f 9/20/9 64/65/100 11/12/13
f 11/12/13 64/65/100 65/64/99
f 62/61/95 32/31/96 66/66/101
f 66/66/101 32/31/96 33/32/102
f 66/66/101 33/32/102 63/62/97
f 63/62/97 33/32/102 64/63/98
f 31/30/36 34/33/38 65/64/99
f 65/64/99 34/33/38 61/60/93
f 33/32/40 31/30/36 64/65/100
f 64/65/100 31/30/36 65/64/99
f 68/70/103 69/71/104 67/69/105
f 69/71/104 46/45/64 67/69/105
f 67/69/105 46/45/64 14/68/106
f 46/45/64 49/48/66 14/68/106
f 14/68/106 49/48/66 12/67/107
f 49/48/66 62/61/95 12/67/107
f 62/61/95 66/66/101 12/67/107
f 66/66/101 63/62/97 12/67/107
f 12/67/107 63/62/97 21/19/11
f 21/19/11 8/8/12 12/67/107
f 12/67/107 8/8/12 13/75/108
f 67/69/105 13/75/108 68/70/103
f 68/70/103 13/75/108 72/74/109
f 72/74/109 13/75/108 71/73/110
f 71/73/110 13/75/108 70/72/111
f 70/72/111 13/75/108 8/8/12
f 10/11/10 5/5/8 74/79/112
f 74/79/112 5/5/8 73/76/113
f 8/8/12 10/10/10 70/72/111
f 70/72/111 10/10/10 74/77/114
f 5/5/8 7/7/6 73/76/113
f 73/76/113 7/7/6 75/78/115
f 74/77/114 76/80/116 70/72/111
f 70/72/111 76/80/116 71/73/110
f 73/76/113 77/81/117 74/79/112
f 74/79/112 77/81/117 76/83/118
f 75/78/115 78/82/119 73/76/113
f 73/76/113 78/82/119 77/81/117
f 76/80/116 79/84/120 71/73/110
f 71/73/110 79/84/120 72/74/109
f 77/86/117 80/85/121 76/80/118
f 76/80/118 80/85/121 79/84/122
f 78/88/119 81/87/123 77/86/117
f 77/86/117 81/87/123 80/85/121
f 79/84/120 82/89/124 72/74/109
f 72/74/109 82/89/124 68/70/103
f 80/85/121 83/90/125 79/84/122
f 79/84/122 83/90/125 82/89/126
f 81/87/123 84/91/127 80/85/121
f 80/85/121 84/91/127 83/90/125
f 75/78/115 7/7/6 85/92/128
f 85/92/128 7/7/6 19/17/31
s 6
f 85/92/129 19/17/22 86/93/130
f 86/93/130 19/17/22 15/13/24
s 2
f 78/82/119 75/78/115 87/94/131
f 87/94/131 75/78/115 85/92/128
s 4
f 86/93/132 15/13/14 88/95/133
f 88/95/133 15/13/14 18/16/16
s 5
f 89/96/134 88/95/135 1/1/19
f 1/1/19 88/95/135 18/16/21
s 6
f 87/94/136 85/92/129 90/97/137
f 90/97/137 85/92/129 86/93/130
s 4
f 90/97/138 86/93/132 91/98/139
f 91/98/139 86/93/132 88/95/133
s 5
f 89/96/134 92/99/140 88/95/135
f 88/95/135 92/99/140 91/98/141
s 2
f 81/87/123 78/88/119 93/101/142
f 93/101/142 78/88/119 87/100/131
s 6
f 93/101/143 87/100/136 94/103/144
f 94/103/144 87/100/136 90/102/137
s 4
f 94/103/145 90/102/138 95/105/146
f 95/105/146 90/102/138 91/104/139
s 5
f 92/106/140 96/107/147 91/104/141
f 91/104/141 96/107/147 95/105/148
s 2
f 84/91/127 81/87/123 97/108/149
f 97/108/149 81/87/123 93/101/142
s 6
f 93/101/143 94/103/144 97/108/150
f 97/108/150 94/103/144 98/109/151
s 4
f 98/109/152 94/103/145 99/110/153
f 99/110/153 94/103/145 95/105/146
s 5
f 96/107/147 100/111/154 95/105/148
f 95/105/148 100/111/154 99/110/155
s 1
f 89/96/156 1/1/1 101/112/157
f 101/112/157 1/1/1 4/4/3
f 92/99/158 89/96/156 102/113/159
f 102/113/159 89/96/156 101/112/157
s 2
f 69/71/104 68/70/103 103/114/160
f 103/114/160 68/70/103 82/89/124
f 103/114/161 82/89/126 104/115/162
f 104/115/162 82/89/126 83/90/125
s 1
f 96/107/163 92/106/158 105/116/164
f 105/116/164 92/106/158 102/113/159
s 2
f 106/117/165 104/115/162 84/91/127
f 84/91/127 104/115/162 83/90/125
f 106/117/165 84/91/127 107/118/166
f 107/118/166 84/91/127 97/108/149
s 1
f 100/111/167 96/107/163 108/119/168
f 108/119/168 96/107/163 105/116/164
s 6
f 97/108/150 98/109/151 107/118/169
f 107/118/169 98/109/151 109/120/170
s 4
f 109/120/171 98/109/152 110/121/172
f 110/121/172 98/109/152 99/110/153
s 5
f 100/111/154 111/122/173 99/110/155
f 99/110/155 111/122/173 110/121/174
s 1
f 111/122/175 100/111/167 112/123/176
f 112/123/176 100/111/167 108/119/168
s 20
f 111/122/177 107/118/178 110/121/179
f 110/121/179 107/118/178 109/120/180
