# This file uses centimeters as units for non-parametric coordinates.

mtllib bathroom_Counter_Pole_Inner.mtl
g default
v -6.325613 0.923403 -0.884350
v -6.462057 0.923403 -1.825186
v -6.325613 8.975581 -1.825186
v -6.462057 8.975581 -0.884350
v -6.325613 1.397061 -1.825186
v -6.462057 1.397061 -0.884350
v -6.462057 1.870718 -1.825186
v -6.325613 1.870718 -0.884350
v -6.325613 2.344376 -1.825186
v -6.462057 2.344376 -0.884350
v -6.462057 2.818034 -1.825186
v -6.325613 2.818034 -0.884350
v -6.325613 3.291691 -1.825186
v -6.462057 3.291691 -0.884350
v -6.462057 3.765349 -1.825186
v -6.325613 3.765349 -0.884350
v -6.325613 4.239006 -1.825186
v -6.462057 4.239006 -0.884350
v -6.462057 4.712664 -1.825186
v -6.325613 4.712664 -0.884350
v -6.325613 5.186321 -1.825186
v -6.462057 5.186321 -0.884350
v -6.462057 5.659979 -1.825186
v -6.325613 5.659979 -0.884350
v -6.325613 6.133636 -1.825186
v -6.462057 6.133636 -0.884350
v -6.462057 6.607294 -1.825186
v -6.325613 6.607294 -0.884350
v -6.325613 7.080952 -1.825186
v -6.462057 7.080952 -0.884350
v -6.462057 7.554609 -1.825186
v -6.325613 7.554609 -0.884350
v -6.325613 8.028267 -1.825186
v -6.462057 8.028267 -0.884350
v -6.462057 8.501924 -1.825186
v -6.325613 8.501924 -0.884350
vt 0.625000 0.000000
vt 0.875000 0.000000
vt 0.875000 0.250000
vt 0.625000 0.250000
vt 0.875000 0.014706
vt 0.625000 0.014706
vt 0.875000 0.029412
vt 0.625000 0.029412
vt 0.875000 0.044118
vt 0.625000 0.044118
vt 0.875000 0.058824
vt 0.625000 0.058824
vt 0.875000 0.073529
vt 0.625000 0.073529
vt 0.875000 0.088235
vt 0.625000 0.088235
vt 0.875000 0.102941
vt 0.625000 0.102941
vt 0.875000 0.117647
vt 0.625000 0.117647
vt 0.875000 0.132353
vt 0.625000 0.132353
vt 0.875000 0.147059
vt 0.625000 0.147059
vt 0.875000 0.161765
vt 0.625000 0.161765
vt 0.875000 0.176471
vt 0.625000 0.176471
vt 0.875000 0.191176
vt 0.625000 0.191176
vt 0.875000 0.205882
vt 0.625000 0.205882
vt 0.875000 0.220588
vt 0.625000 0.220588
vt 0.875000 0.235294
vt 0.625000 0.235294
vn 0.972236 0.209009 0.105224
vn 0.999991 0.003708 0.001867
vn 0.999991 0.003708 0.001867
vn 0.999991 -0.003708 -0.001867
vn 0.999991 -0.003708 -0.001867
vn 0.999991 0.003708 0.001867
vn 0.999991 0.003708 0.001867
vn 0.999991 -0.003708 -0.001867
vn 0.999991 -0.003708 -0.001867
vn 0.999991 0.003708 0.001867
vn 0.999991 0.003708 0.001867
vn 0.999991 -0.003708 -0.001867
vn 0.999991 -0.003708 -0.001867
vn 0.999991 0.003708 0.001867
vn 0.999991 0.003708 0.001867
vn 0.999991 -0.003708 -0.001867
vn 0.999991 -0.003708 -0.001867
vn 0.999991 0.003708 0.001867
vn 0.999991 0.003708 0.001867
vn 0.999991 -0.003708 -0.001867
vn 0.999991 -0.003708 -0.001867
vn 0.999991 0.003708 0.001867
vn 0.999991 0.003708 0.001867
vn 0.999991 -0.003708 -0.001867
vn 0.999991 -0.003708 -0.001867
vn 0.999991 0.003708 0.001867
vn 0.999991 0.003708 0.001867
vn 0.999991 -0.003708 -0.001867
vn 0.999991 -0.003708 -0.001867
vn 0.999991 0.003708 0.001867
vn 0.999991 0.003708 0.001867
vn 0.999991 -0.003708 -0.001867
vn 0.999991 -0.003708 -0.001867
vn 0.972236 -0.209009 -0.105224
vn 0.951728 0.274159 0.138024
vn 0.951728 -0.274159 -0.138024
s 1
g polySurface1 CounterPole_Right
usemtl initialShadingGroup
f 1/1/1 5/5/2 6/6/3
f 6/6/3 7/7/4 8/8/5
f 8/8/5 9/9/6 10/10/7
f 10/10/7 11/11/8 12/12/9
f 12/12/9 13/13/10 14/14/11
f 14/14/11 15/15/12 16/16/13
f 16/16/13 17/17/14 18/18/15
f 18/18/15 19/19/16 20/20/17
f 20/20/17 21/21/18 22/22/19
f 22/22/19 23/23/20 24/24/21
f 24/24/21 25/25/22 26/26/23
f 26/26/23 27/27/24 28/28/25
f 28/28/25 29/29/26 30/30/27
f 30/30/27 31/31/28 32/32/29
f 32/32/29 33/33/30 34/34/31
f 34/34/31 35/35/32 36/36/33
f 36/36/33 3/3/34 4/4/35
f 36/36/33 35/35/32 3/3/34
f 34/34/31 33/33/30 35/35/32
f 32/32/29 31/31/28 33/33/30
f 30/30/27 29/29/26 31/31/28
f 28/28/25 27/27/24 29/29/26
f 26/26/23 25/25/22 27/27/24
f 24/24/21 23/23/20 25/25/22
f 22/22/19 21/21/18 23/23/20
f 20/20/17 19/19/16 21/21/18
f 18/18/15 17/17/14 19/19/16
f 16/16/13 15/15/12 17/17/14
f 14/14/11 13/13/10 15/15/12
f 12/12/9 11/11/8 13/13/10
f 10/10/7 9/9/6 11/11/8
f 8/8/5 7/7/4 9/9/6
f 6/6/3 5/5/2 7/7/4
f 1/1/1 2/2/36 5/5/2
