# This file uses centimeters as units for non-parametric coordinates.

mtllib bathroom_Carpet.mtl
g default
v -3.699775 -0.046760 6.742786
v 3.995504 0.015095 6.634892
v -3.699775 0.023769 6.742786
v 3.995504 0.085624 6.634892
v -3.087422 0.023769 -1.262259
v 4.578535 0.085624 -1.392427
v -3.087422 -0.046760 -1.262259
v 4.578535 0.015095 -1.392427
v 2.870036 0.085624 6.754480
v 2.870036 0.085624 -1.392427
v 2.870036 0.015095 -1.392427
v 1.512219 0.085624 6.754480
v 1.512219 0.085624 -1.392427
v 1.512219 0.015095 -1.392427
v -0.482361 0.085624 6.748743
v -0.914581 0.085624 -1.386690
v -0.914581 0.015095 -1.386690
v -1.343285 -0.009433 6.754480
v -1.343285 0.069828 6.754480
v -1.343285 0.281477 -1.392427
v -1.343285 0.123983 -1.392427
v -2.421367 -0.002888 6.755837
v -2.421367 0.076368 6.754962
v -2.421367 0.198114 -1.393784
v -2.421367 0.040629 -1.392047
v -3.181950 0.023769 -0.026526
v -3.181950 -0.046760 -0.026526
v -2.421367 0.055611 -0.034311
v -1.343285 0.123983 -0.034609
v -0.842544 0.015095 -0.030785
v 2.870036 0.015095 -0.034609
v 4.389337 0.015095 -0.034609
v 4.389337 0.085624 -0.034609
v 2.870036 0.085624 -0.034609
v 1.512219 0.085624 -0.034609
v -0.842544 0.085624 -0.030785
v -1.343285 0.281477 -0.034609
v -2.421367 0.213096 -0.036049
v -3.285515 0.023769 1.327336
v -3.285515 -0.046760 1.327336
v -2.421367 0.070593 1.323424
v -1.343285 0.123983 1.323208
v -0.770507 0.015095 1.325121
v 2.870036 -0.079806 1.323208
v 4.227854 -0.017300 1.323208
v 4.227854 0.053229 1.323208
v 2.870036 0.085624 1.323208
v 1.512219 0.085624 1.323208
v -0.770507 0.085624 1.325121
v -1.343285 0.281477 1.323208
v -2.421367 0.228078 1.321686
v -3.389080 0.023769 2.681199
v -3.389080 -0.046760 2.681199
v -2.421367 -0.130689 2.681981
v -1.343285 -0.092285 2.681026
v -0.698471 0.015095 2.681026
v 2.438452 -0.079806 2.681026
v 3.796270 0.120865 2.681026
v 3.796270 0.191394 2.681026
v 2.438452 0.085624 2.681026
v 1.396056 0.085624 2.681026
v -0.698471 0.085624 2.681026
v -1.343285 0.207009 2.681026
v -2.421367 0.168595 2.680243
v -3.492646 0.023769 4.035061
v -3.492646 -0.046760 4.035061
v -1.343285 -0.001063 4.038844
v -0.626434 0.015095 4.036932
v 2.870036 -0.079806 4.038844
v 4.227854 -0.017300 4.038844
v 4.227854 0.053229 4.038844
v 2.870036 0.085624 4.038844
v 1.512219 0.085624 4.038844
v -0.626434 0.085624 4.036932
v -1.343285 0.156431 4.038844
v -2.421367 0.133003 4.038536
v -3.596210 0.023769 5.388924
v -3.596210 -0.046760 5.388924
v -1.343285 -0.009433 5.396662
v -0.554397 0.015095 5.392837
v 3.009850 0.015095 5.396662
v 4.367668 0.015095 5.396662
v 4.367668 0.085624 5.396662
v 3.009850 0.085624 5.396662
v 1.512219 0.085624 5.396662
v -0.554397 0.085624 5.392837
v -1.343285 0.069828 5.396662
v -2.421367 0.061386 5.397227
v -1.872604 0.081235 6.751552
v -1.872604 0.115180 5.394158
v -1.872604 0.164457 4.038930
v -1.872604 0.233171 2.682801
v -1.872604 0.341562 1.327269
v -1.872604 0.375507 -0.030124
v -1.872604 0.409453 -1.387518
v -1.872604 0.252007 -1.391455
v -1.872604 0.218062 -0.034062
v -1.872604 0.184116 1.323332
v -1.872604 -0.066073 2.678864
v -1.872604 0.001999 6.749570
vt 0.375000 0.000000
vt 0.625000 0.000000
vt 0.375000 0.250000
vt 0.625000 0.250000
vt 0.375000 0.500000
vt 0.625000 0.500000
vt 0.375000 0.750000
vt 0.625000 0.750000
vt 0.625000 1.000000
vt 0.875000 0.000000
vt 0.875000 0.250000
vt 0.125000 0.000000
vt 0.125000 0.250000
vt 0.583333 0.250000
vt 0.583333 0.500000
vt 0.583333 0.750000
vt 0.541667 0.250000
vt 0.541667 0.500000
vt 0.541667 0.750000
vt 0.500000 0.250000
vt 0.500000 0.500000
vt 0.500000 0.750000
vt 0.458333 0.000000
vt 0.458333 1.000000
vt 0.458333 0.250000
vt 0.458333 0.500000
vt 0.458333 0.750000
vt 0.416667 0.000000
vt 0.416667 0.250000
vt 0.416667 0.500000
vt 0.416667 0.750000
vt 0.166667 0.250000
vt 0.375000 0.458333
vt 0.166667 0.000000
vt 0.375000 0.791667
vt 0.416667 0.791667
vt 0.458333 0.791667
vt 0.500000 0.791667
vt 0.583333 0.791667
vt 0.625000 0.791667
vt 0.833333 0.000000
vt 0.625000 0.458333
vt 0.833333 0.250000
vt 0.583333 0.458333
vt 0.541667 0.458333
vt 0.500000 0.458333
vt 0.458333 0.458333
vt 0.416667 0.458333
vt 0.208333 0.250000
vt 0.375000 0.416667
vt 0.208333 0.000000
vt 0.375000 0.833333
vt 0.416667 0.833333
vt 0.458333 0.833333
vt 0.500000 0.833333
vt 0.583333 0.833333
vt 0.625000 0.833333
vt 0.791667 0.000000
vt 0.625000 0.416667
vt 0.791667 0.250000
vt 0.583333 0.416667
vt 0.541667 0.416667
vt 0.500000 0.416667
vt 0.458333 0.416667
vt 0.416667 0.416667
vt 0.250000 0.250000
vt 0.375000 0.375000
vt 0.250000 0.000000
vt 0.416667 0.875000
vt 0.458333 0.875000
vt 0.500000 0.875000
vt 0.583333 0.875000
vt 0.625000 0.875000
vt 0.750000 0.000000
vt 0.625000 0.375000
vt 0.750000 0.250000
vt 0.583333 0.375000
vt 0.541667 0.375000
vt 0.500000 0.375000
vt 0.458333 0.375000
vt 0.416667 0.375000
vt 0.291667 0.250000
vt 0.375000 0.333333
vt 0.291667 0.000000
vt 0.458333 0.916667
vt 0.500000 0.916667
vt 0.583333 0.916667
vt 0.625000 0.916667
vt 0.708333 0.000000
vt 0.625000 0.333333
vt 0.708333 0.250000
vt 0.583333 0.333333
vt 0.541667 0.333333
vt 0.500000 0.333333
vt 0.458333 0.333333
vt 0.416667 0.333333
vt 0.333333 0.250000
vt 0.375000 0.291667
vt 0.333333 0.000000
vt 0.458333 0.958333
vt 0.500000 0.958333
vt 0.583333 0.958333
vt 0.625000 0.958333
vt 0.666667 0.000000
vt 0.625000 0.291667
vt 0.666667 0.250000
vt 0.583333 0.291667
vt 0.541667 0.291667
vt 0.500000 0.291667
vt 0.458333 0.291667
vt 0.416667 0.291667
vt 0.437876 0.250000
vt 0.437876 0.291667
vt 0.437876 0.333333
vt 0.437876 0.375000
vt 0.437876 0.416667
vt 0.437876 0.458333
vt 0.437876 0.500000
vt 0.437876 0.750000
vt 0.437876 0.791667
vt 0.437876 0.833333
vt 0.437876 0.875000
vt 0.437876 0.000000
vn -0.010208 0.000000 0.999948
vn -0.007762 0.002710 0.999966
vn -0.010005 0.009697 0.999903
vn 0.003762 -0.018089 0.999829
vn -0.022610 0.999683 -0.011031
vn -0.068015 0.997508 0.018771
vn -0.033848 0.999418 -0.004218
vn -0.031985 0.999485 -0.002447
vn 0.002667 -0.010286 -0.999944
vn -0.189810 -0.010389 -0.981766
vn -0.191213 -0.002096 -0.981546
vn -0.191265 0.000000 -0.981538
vn 0.957678 0.000000 0.287841
vn 0.999427 0.000000 0.033848
vn 0.957678 0.000000 0.287841
vn 0.976364 0.000000 0.216134
vn -0.997087 0.000000 -0.076273
vn -0.997087 0.000000 -0.076273
vn -0.997087 0.000000 -0.076273
vn -0.997087 0.000000 -0.076273
vn -0.019787 -0.999601 0.020176
vn 0.105662 0.000000 0.994402
vn 0.030797 -0.706834 0.706709
vn 0.000000 1.000000 0.000000
vn 0.000000 1.000000 0.000000
vn 0.000000 1.000000 0.000000
vn 0.009741 0.999895 -0.010744
vn 0.000000 0.000000 -1.000000
vn 0.000000 0.000000 -1.000000
vn 0.000000 0.000000 -1.000000
vn 0.000000 0.000000 -1.000000
vn 0.000000 1.000000 0.000000
vn 0.000000 1.000000 0.000000
vn -0.001516 0.000000 -0.999999
vn -0.001516 0.000000 -0.999999
vn 0.003050 0.999928 0.011605
vn -0.005262 0.999986 0.000280
vn -0.002304 0.000000 -0.999997
vn 0.001820 0.000000 -0.999998
vn -0.005285 0.000000 0.999986
vn 0.006663 0.000000 0.999978
vn 0.001721 -0.009411 0.999954
vn 0.008591 0.999850 0.015006
vn -0.003256 0.999995 0.000238
vn -0.003079 0.023642 -0.999716
vn 0.013166 0.000000 -0.999913
vn 0.001044 -0.990056 0.140672
vn -0.002865 0.086079 0.996284
vn 0.032348 -0.999402 0.012242
vn 0.000000 -0.999908 0.013559
vn -0.006382 -0.999388 0.034381
vn 0.031065 -0.999515 -0.002361
vn 0.020942 -0.999609 0.018541
vn 0.000405 0.004417 0.999990
vn 0.002399 -0.024999 0.999685
vn -0.008366 0.999820 0.017057
vn -0.006205 0.998573 0.053039
vn 0.000016 0.012976 -0.999916
vn -0.001251 0.025000 -0.999687
vn -0.997087 0.000000 -0.076273
vn -0.997087 0.000000 -0.076273
vn -0.997087 0.000000 -0.076273
vn -0.997087 0.000000 -0.076273
vn 0.132018 -0.991196 0.010099
vn 0.160587 -0.986968 0.010280
vn 0.132905 -0.991076 0.010201
vn 0.189133 -0.981896 0.010413
vn 0.075873 -0.996827 -0.024059
vn 0.076517 -0.996757 -0.024927
vn -0.199715 -0.979801 0.010247
vn -0.185460 -0.982652 -0.000612
vn -0.214568 -0.976651 0.010620
vn -0.209882 -0.977726 -0.001073
vn 0.005143 -0.999839 -0.017165
vn 0.000000 -1.000000 0.000000
vn 0.000000 -0.999941 -0.010860
vn 0.000000 -1.000000 0.000000
vn 0.990929 0.000000 0.134387
vn 0.992121 0.000000 0.125284
vn 0.990431 0.000000 0.138007
vn 0.990431 0.000000 0.138007
vn 0.000000 1.000000 0.000000
vn 0.007488 0.999937 0.008378
vn 0.000000 1.000000 0.000000
vn 0.000000 1.000000 0.000000
vn 0.000000 1.000000 0.000000
vn 0.000000 1.000000 0.000000
vn 0.068692 0.997632 -0.003510
vn 0.067016 0.997746 -0.003492
vn 0.292072 0.956396 0.001051
vn 0.266270 0.963898 0.000602
vn -0.247176 0.968915 -0.010373
vn -0.075921 0.996824 0.024059
vn -0.250212 0.968137 -0.010262
vn -0.076550 0.996754 0.024927
vn -0.248063 0.968562 -0.018790
vn -0.256807 0.966263 -0.019645
vn -0.997087 0.000000 -0.076273
vn -0.997087 0.000000 -0.076273
vn 0.133581 -0.990985 0.010271
vn 0.190741 -0.978539 -0.077971
vn 0.062987 -0.997629 -0.027734
vn -0.094621 -0.992597 -0.076143
vn -0.137063 -0.986360 -0.091151
vn 0.045985 -0.998932 0.004452
vn 0.090122 -0.995188 0.038466
vn 0.987558 0.000000 0.157258
vn 0.976060 0.000000 0.217502
vn -0.002162 0.999616 -0.027621
vn 0.023847 0.999505 -0.020509
vn 0.000000 1.000000 0.000000
vn 0.056232 0.998414 -0.002533
vn 0.181942 0.982559 0.038391
vn -0.186258 0.982273 0.021157
vn -0.063102 0.997671 0.025893
vn -0.191931 0.981323 -0.012951
vn -0.997087 0.000000 -0.076273
vn -0.997087 0.000000 -0.076273
vn 0.114878 -0.982653 -0.145588
vn 0.036839 -0.987683 -0.152069
vn 0.047507 -0.997340 -0.055280
vn 0.118157 -0.992957 0.008672
vn 0.146201 -0.989255 0.000000
vn 0.062457 -0.998048 0.000000
vn 1.000000 0.000000 0.000000
vn 1.000000 0.000000 0.000000
vn -0.029403 0.999568 0.000000
vn -0.037513 0.999296 0.000000
vn 0.000000 1.000000 -0.000000
vn 0.035635 0.999364 -0.001308
vn 0.191353 0.980252 0.049904
vn -0.175283 0.983687 0.040438
vn -0.060431 0.996348 0.060316
vn -0.125149 0.992103 -0.008342
vn -0.997087 0.000000 -0.076273
vn -0.997087 0.000000 -0.076273
vn 0.022532 -0.999745 -0.001197
vn 0.085631 -0.995995 0.025738
vn 0.045984 -0.998927 -0.005422
vn 0.091163 -0.994995 -0.040909
vn 0.989429 0.000000 -0.145021
vn 0.977618 0.000000 -0.210387
vn 0.023847 0.999496 0.020971
vn -0.002161 0.999614 0.027712
vn 0.000000 1.000000 -0.000000
vn 0.024910 0.999689 -0.001323
vn 0.101883 0.994170 0.035303
vn -0.112884 0.993137 0.030609
vn -0.031710 0.998830 0.036517
vn -0.071852 0.997415 0.000585
s 1
g Carpet
usemtl initialShadingGroup
f 1/1/1 22/28/2 3/3/3
f 3/3/3 22/28/2 23/29/4
s 2
f 23/29/5 88/111/6 3/3/7
f 3/3/7 88/111/6 77/98/8
s 3
f 24/30/9 25/31/10 5/5/11
f 5/5/11 25/31/10 7/7/12
s 4
f 2/2/13 82/104/14 4/4/15
f 4/4/15 82/104/14 83/106/16
s 5
f 78/99/17 1/1/18 77/97/19
f 77/97/19 1/1/18 3/3/20
s 6
f 2/2/21 4/4/22 9/14/23
s 2
f 9/14/24 4/4/25 84/107/26
f 84/107/26 4/4/25 83/105/27
s 3
f 11/16/28 10/15/29 8/8/30
f 8/8/30 10/15/29 6/6/31
s 2
f 12/17/32 9/14/24 85/108/33
f 85/108/33 9/14/24 84/107/26
s 3
f 14/19/34 13/18/35 11/16/28
f 11/16/28 13/18/35 10/15/29
s 2
f 86/109/36 15/20/37 85/108/33
f 85/108/33 15/20/37 12/17/32
s 3
f 17/22/38 16/21/39 14/19/34
f 14/19/34 16/21/39 13/18/35
s 1
f 18/23/40 15/20/41 19/25/42
s 2
f 87/110/43 19/25/44 86/109/36
f 86/109/36 19/25/44 15/20/37
s 3
f 20/26/45 16/21/39 21/27/46
f 21/27/46 16/21/39 17/22/38
s 6
f 9/14/23 12/17/47 2/9/21
f 15/20/48 18/24/49 12/17/47
f 82/103/50 2/9/21 81/102/51
f 2/9/21 12/17/47 81/102/51
f 79/100/52 80/101/53 18/24/49
f 18/24/49 80/101/53 12/17/47
f 12/17/47 80/101/53 81/102/51
s 1
f 22/28/2 100/123/54 23/29/4
f 23/29/4 100/123/54 89/112/55
s 2
f 23/29/5 89/112/56 88/111/6
f 88/111/6 89/112/56 90/113/57
s 3
f 25/31/10 24/30/9 96/119/58
f 96/119/58 24/30/9 95/118/59
s 5
f 7/12/60 27/34/61 5/13/62
f 5/13/62 27/34/61 26/32/63
s 6
f 7/7/64 25/31/65 27/35/66
f 27/35/66 25/31/65 28/36/67
f 28/36/67 25/31/65 97/120/68
f 97/120/68 25/31/65 96/119/69
f 30/38/70 29/37/71 17/22/72
f 17/22/72 29/37/71 21/27/73
f 31/39/74 11/16/75 32/40/76
f 32/40/76 11/16/75 8/8/77
s 4
f 33/43/78 32/41/79 6/11/80
f 6/11/80 32/41/79 8/10/81
s 2
f 34/44/82 33/42/83 10/15/84
f 10/15/84 33/42/83 6/6/85
f 13/18/86 35/45/87 10/15/84
f 10/15/84 35/45/87 34/44/82
f 16/21/88 36/46/89 13/18/86
f 13/18/86 36/46/89 35/45/87
f 20/26/90 37/47/91 16/21/88
f 16/21/88 37/47/91 36/46/89
f 38/48/92 94/117/93 24/30/94
f 24/30/94 94/117/93 95/118/95
f 38/48/92 24/30/94 26/33/96
f 26/33/96 24/30/94 5/5/97
s 5
f 27/34/61 40/51/98 26/32/63
f 26/32/63 40/51/98 39/49/99
s 6
f 27/35/66 28/36/67 40/52/100
f 40/52/100 28/36/67 41/53/101
f 41/53/101 28/36/67 98/121/102
f 98/121/102 28/36/67 97/120/68
f 43/55/103 42/54/104 30/38/70
f 30/38/70 42/54/104 29/37/71
f 44/56/105 31/39/74 45/57/106
f 45/57/106 31/39/74 32/40/76
s 4
f 45/58/107 32/41/79 46/60/108
f 46/60/108 32/41/79 33/43/78
s 2
f 34/44/82 47/61/109 33/42/83
f 33/42/83 47/61/109 46/59/110
f 35/45/87 48/62/111 34/44/82
f 34/44/82 48/62/111 47/61/109
f 36/46/89 49/63/112 35/45/87
f 35/45/87 49/63/112 48/62/111
f 37/47/91 50/64/113 36/46/89
f 36/46/89 50/64/113 49/63/112
f 51/65/114 93/116/115 38/48/92
f 38/48/92 93/116/115 94/117/93
f 51/65/114 38/48/92 39/50/116
f 39/50/116 38/48/92 26/33/96
s 5
f 40/51/98 53/68/117 39/49/99
f 39/49/99 53/68/117 52/66/118
s 6
f 54/69/119 41/53/101 99/122/120
f 99/122/120 41/53/101 98/121/102
f 42/54/104 43/55/103 55/70/121
f 56/71/122 55/70/121 43/55/103
f 58/73/123 57/72/124 45/57/106
f 45/57/106 57/72/124 44/56/105
s 4
f 59/76/125 58/74/126 46/60/108
f 46/60/108 58/74/126 45/58/107
s 2
f 46/59/110 47/61/109 59/75/127
f 47/61/109 60/77/128 59/75/127
f 61/78/129 60/77/128 48/62/111
f 48/62/111 60/77/128 47/61/109
f 62/79/130 61/78/129 49/63/112
f 49/63/112 61/78/129 48/62/111
f 50/64/113 63/80/131 49/63/112
f 49/63/112 63/80/131 62/79/130
f 64/81/132 92/115/133 51/65/114
f 51/65/114 92/115/133 93/116/115
f 52/67/134 64/81/132 39/50/116
f 39/50/116 64/81/132 51/65/114
s 5
f 53/68/117 66/84/135 52/66/118
f 52/66/118 66/84/135 65/82/136
s 6
f 68/86/137 67/85/138 56/71/122
f 56/71/122 67/85/138 55/70/121
f 69/87/139 57/72/124 70/88/140
f 70/88/140 57/72/124 58/73/123
s 4
f 70/89/141 58/74/126 71/91/142
f 71/91/142 58/74/126 59/76/125
s 2
f 71/90/143 59/75/127 72/92/144
f 60/77/128 72/92/144 59/75/127
f 61/78/129 73/93/145 60/77/128
f 60/77/128 73/93/145 72/92/144
f 62/79/130 74/94/146 61/78/129
f 61/78/129 74/94/146 73/93/145
f 63/80/131 75/95/147 62/79/130
f 62/79/130 75/95/147 74/94/146
f 76/96/148 91/114/149 64/81/132
f 64/81/132 91/114/149 92/115/133
f 65/83/150 76/96/148 52/67/134
f 52/67/134 76/96/148 64/81/132
s 5
f 66/84/135 78/99/17 65/82/136
f 65/82/136 78/99/17 77/97/19
s 6
f 79/100/52 67/85/138 80/101/53
f 80/101/53 67/85/138 68/86/137
f 82/103/50 81/102/51 70/88/140
f 70/88/140 81/102/51 69/87/139
s 4
f 83/106/16 82/104/14 71/91/142
f 71/91/142 82/104/14 70/89/141
s 2
f 84/107/26 83/105/27 72/92/144
f 72/92/144 83/105/27 71/90/143
f 73/93/145 85/108/33 72/92/144
f 72/92/144 85/108/33 84/107/26
f 74/94/146 86/109/36 73/93/145
f 73/93/145 86/109/36 85/108/33
f 87/110/43 86/109/36 75/95/147
f 75/95/147 86/109/36 74/94/146
f 88/111/6 90/113/57 76/96/148
f 76/96/148 90/113/57 91/114/149
f 77/98/8 88/111/6 65/83/150
f 65/83/150 88/111/6 76/96/148
f 90/113/57 89/112/56 87/110/43
f 87/110/43 89/112/56 19/25/44
f 91/114/149 90/113/57 75/95/147
f 75/95/147 90/113/57 87/110/43
f 92/115/133 91/114/149 63/80/131
f 63/80/131 91/114/149 75/95/147
f 93/116/115 92/115/133 50/64/113
f 50/64/113 92/115/133 63/80/131
f 94/117/93 93/116/115 37/47/91
f 37/47/91 93/116/115 50/64/113
f 95/118/95 94/117/93 20/26/90
f 20/26/90 94/117/93 37/47/91
s 3
f 95/118/59 20/26/45 96/119/58
f 96/119/58 20/26/45 21/27/46
s 6
f 29/37/71 97/120/68 21/27/73
f 21/27/73 97/120/68 96/119/69
f 42/54/104 98/121/102 29/37/71
f 29/37/71 98/121/102 97/120/68
f 55/70/121 99/122/120 42/54/104
f 42/54/104 99/122/120 98/121/102
s 1
f 89/112/55 100/123/54 19/25/42
f 19/25/42 100/123/54 18/23/40
