# This file uses centimeters as units for non-parametric coordinates.

g default
v 5.345582 9.771928 -4.722985
v 5.346432 9.771928 -4.559680
v 0.756447 9.771928 -4.535805
v 0.755598 9.771928 -4.699109
v 5.345582 9.798241 -4.722984
v 5.346431 9.798241 -4.559681
v 0.756448 9.798241 -4.535806
v 0.755599 9.798241 -4.699108
v 0.735703 9.805683 -4.679009
v 0.729424 9.805683 -4.703478
v 0.734781 9.805683 -4.719711
v 0.750957 9.805683 -4.725236
v 0.775490 9.805683 -4.719212
v 0.775490 9.898930 -4.719212
v 0.750957 9.898930 -4.725236
v 0.734781 9.898930 -4.719711
v 0.729424 9.898930 -4.703478
v 0.735703 9.898930 -4.679009
v 0.776548 9.805683 -4.515910
v 0.752079 9.805683 -4.509631
v 0.735845 9.805683 -4.514988
v 0.730321 9.805683 -4.531163
v 0.736345 9.805683 -4.555697
v 0.776548 9.898930 -4.515910
v 0.736345 9.898930 -4.555697
v 0.730321 9.898930 -4.531163
v 0.735845 9.898930 -4.514988
v 0.752079 9.898930 -4.509631
v 5.371708 9.898930 -4.727626
v 5.366184 9.898930 -4.743802
v 5.349952 9.898930 -4.749159
v 5.325482 9.898930 -4.742880
v 5.365685 9.898930 -4.703093
v 5.325482 9.805683 -4.742880
v 5.349952 9.805683 -4.749159
v 5.366184 9.805683 -4.743802
v 5.371708 9.805683 -4.727626
v 5.365685 9.805683 -4.703093
v 5.351073 9.898930 -4.533554
v 5.367248 9.898930 -4.539079
v 5.372605 9.898930 -4.555312
v 5.366326 9.898930 -4.579780
v 5.326539 9.898930 -4.539578
v 5.366326 9.805683 -4.579780
v 5.372605 9.805683 -4.555312
v 5.367248 9.805683 -4.539079
v 5.351073 9.805683 -4.533554
v 5.326539 9.805683 -4.539578
v 5.325482 9.771928 -4.742880
v 5.349952 9.771928 -4.749159
v 5.366184 9.771928 -4.743802
v 5.371708 9.771928 -4.727626
v 5.365685 9.771928 -4.703093
v 5.366326 9.771928 -4.579780
v 5.372605 9.771928 -4.555312
v 5.367248 9.771928 -4.539079
v 5.351073 9.771928 -4.533554
v 5.326539 9.771928 -4.539578
v 0.776548 9.771928 -4.515910
v 0.752079 9.771928 -4.509631
v 0.735845 9.771928 -4.514988
v 0.730321 9.771928 -4.531163
v 0.736345 9.771928 -4.555697
v 0.735703 9.771928 -4.679009
v 0.729424 9.771928 -4.703478
v 0.734781 9.771928 -4.719711
v 0.750957 9.771928 -4.725236
v 0.775490 9.771928 -4.719212
vt 0.375000 0.750000
vt 0.625000 0.750000
vt 0.625000 0.750000
vt 0.375000 0.750000
vt 0.625000 1.000000
vt 0.625000 1.000000
vt 0.375000 1.000000
vt 0.375000 1.000000
vt 0.424182 0.750000
vt 0.575818 0.750000
vt 0.625000 0.752160
vt 0.625000 0.997840
vt 0.575818 1.000000
vt 0.424182 1.000000
vt 0.375000 0.997840
vt 0.375000 0.752160
vt 0.372840 0.000000
vt 0.373990 0.000000
vt 0.373990 0.250000
vt 0.372840 0.250000
vt 0.375000 0.000000
vt 0.375000 0.250000
vt 0.394579 0.000000
vt 0.394151 0.251319
vt 0.424182 0.000000
vt 0.424182 0.250000
vt 0.575818 0.000000
vt 0.605421 0.000000
vt 0.605849 0.251319
vt 0.575818 0.250000
vt 0.625000 0.000000
vt 0.625000 0.250000
vt 0.626010 0.000000
vt 0.626010 0.250000
vt 0.627160 0.000000
vt 0.627160 0.250000
vt 0.127160 0.250000
vt 0.126010 0.250000
vt 0.126010 0.000000
vt 0.127160 0.000000
vt 0.125000 0.250000
vt 0.125000 0.000000
vt 0.375000 0.500000
vt 0.394305 0.500160
vt 0.394204 0.748283
vt 0.375000 0.750000
vt 0.424182 0.500000
vt 0.424182 0.750000
vt 0.575818 0.500000
vt 0.605762 0.500206
vt 0.605797 0.748283
vt 0.575818 0.750000
vt 0.625000 0.500000
vt 0.625000 0.750000
vt 0.875000 0.250000
vt 0.873990 0.250000
vt 0.873990 0.000000
vt 0.875000 0.000000
vt 0.872840 0.250000
vt 0.872840 0.000000
vt 0.625000 0.752160
vt 0.625000 0.997840
vt 0.575818 1.000000
vt 0.424182 1.000000
vt 0.375000 0.997840
vt 0.375000 0.752160
vt 0.375000 0.751088
vt 0.375000 0.750000
vt 0.374902 0.749979
vt 0.625098 0.749979
vt 0.625000 0.750000
vt 0.625000 0.751088
vt 0.625000 0.998912
vt 0.625000 1.000000
vt 0.625093 1.000000
vt 0.374907 1.000000
vt 0.375000 1.000000
vt 0.375000 0.998912
vt 0.375000 0.998990
vt 0.375000 1.000000
vt 0.394579 1.000000
vt 0.605421 1.000000
vt 0.625000 1.000000
vt 0.625000 0.998990
vt 0.375000 0.751010
vt 0.625000 0.751010
vn -0.999987 -0.000021 0.005202
vn -0.999987 -0.000021 0.005202
vn -0.999986 -0.000021 0.005202
vn -0.999987 -0.000021 0.005202
vn -0.005202 -0.000037 -0.999986
vn -0.005202 -0.000037 -0.999987
vn -0.005202 -0.000037 -0.999986
vn -0.005202 -0.000037 -0.999986
vn 0.999986 -0.000045 -0.005200
vn 0.999987 -0.000045 -0.005200
vn 0.999987 -0.000045 -0.005200
vn 0.999987 -0.000045 -0.005200
vn 0.005202 -0.000037 0.999986
vn 0.005202 -0.000037 0.999987
vn 0.005202 -0.000037 0.999986
vn 0.005202 -0.000037 0.999986
vn 0.000000 -1.000000 -0.000000
vn 0.000000 -1.000000 -0.000000
vn 0.000000 -1.000000 -0.000000
vn 0.000000 -1.000000 -0.000000
vn 0.000000 -1.000000 0.000000
vn 0.000000 -1.000000 0.000000
vn 0.000000 -1.000000 -0.000000
vn 0.000000 -1.000000 0.000000
vn -0.000000 -1.000000 0.000000
vn -0.000000 -1.000000 0.000000
vn 0.000000 -1.000000 -0.000000
vn 0.000000 -1.000000 -0.000000
vn -0.003857 0.000000 -0.999993
vn 0.238484 0.000000 -0.971146
vn 0.238484 0.000000 -0.971146
vn -0.003857 0.000000 -0.999993
vn -0.323194 0.000000 -0.946333
vn -0.323194 0.000000 -0.946333
vn -0.323195 0.000000 -0.946333
vn -0.323195 0.000000 -0.946333
vn -0.949645 0.000000 -0.313327
vn -0.949645 0.000000 -0.313327
vn -0.949645 0.000000 -0.313327
vn -0.949645 0.000000 -0.313327
vn -0.968617 0.000000 0.248559
vn -0.998905 0.000000 0.046776
vn -0.998905 0.000000 0.046776
vn -0.968616 0.000000 0.248560
vn -0.999338 0.000000 -0.036383
vn -0.971154 0.000000 -0.238452
vn -0.971154 0.000000 -0.238452
vn -0.999338 0.000000 -0.036383
vn -0.946327 0.000000 0.323210
vn -0.946327 0.000000 0.323210
vn -0.946327 0.000000 0.323210
vn -0.946327 0.000000 0.323210
vn -0.313353 0.000000 0.949637
vn -0.313353 0.000000 0.949637
vn -0.313353 0.000000 0.949637
vn -0.313353 0.000000 0.949637
vn 0.248543 0.000000 0.968621
vn 0.006546 0.000000 0.999979
vn 0.006546 0.000000 0.999979
vn 0.248543 0.000000 0.968621
vn -0.006546 0.000000 -0.999979
vn -0.248552 0.000000 -0.968618
vn -0.248552 0.000000 -0.968619
vn -0.006546 0.000000 -0.999979
vn 0.313393 0.000000 -0.949624
vn 0.313393 0.000000 -0.949624
vn 0.313393 0.000000 -0.949624
vn 0.313393 0.000000 -0.949624
vn 0.946327 0.000000 -0.323210
vn 0.946327 0.000000 -0.323210
vn 0.946327 0.000000 -0.323210
vn 0.946327 0.000000 -0.323210
vn 0.971158 0.000000 0.238435
vn 0.999338 0.000000 0.036381
vn 0.999338 0.000000 0.036381
vn 0.971158 0.000000 0.238435
vn 0.998906 0.000000 -0.046772
vn 0.968619 0.000000 -0.248550
vn 0.968619 0.000000 -0.248550
vn 0.998906 0.000000 -0.046772
vn 0.949643 0.000000 0.313334
vn 0.949643 0.000000 0.313334
vn 0.949643 0.000000 0.313334
vn 0.949643 0.000000 0.313334
vn 0.323214 0.000000 0.946326
vn 0.323214 0.000000 0.946326
vn 0.323214 0.000000 0.946326
vn 0.323214 0.000000 0.946326
vn -0.238462 0.000000 0.971152
vn 0.003857 0.000000 0.999993
vn 0.003857 0.000000 0.999993
vn -0.238462 0.000000 0.971152
vn 0.998906 0.000000 -0.046772
vn 0.999338 0.000000 0.036381
vn 0.006546 0.000000 0.999979
vn 0.003857 0.000000 0.999993
vn -0.998905 0.000000 0.046776
vn -0.999338 0.000000 -0.036383
vn -0.006546 0.000000 -0.999979
vn -0.003857 0.000000 -0.999993
vn 0.000000 -1.000000 -0.000000
vn 0.000001 -1.000000 -0.000000
vn -0.000000 -1.000000 0.000000
vn 0.000001 -1.000000 -0.000000
vn 0.000000 -1.000000 -0.000000
vn 0.000000 -1.000000 0.000000
vn 0.000000 -1.000000 0.000000
vn 0.000000 -1.000000 -0.000000
vn 0.000000 -1.000000 -0.000000
vn 0.000001 -1.000000 -0.000000
vn 0.000000 -1.000000 -0.000000
vn 0.000000 -1.000000 0.000000
vn 0.238484 0.000000 -0.971146
vn -0.323194 0.000000 -0.946333
vn -0.323194 0.000000 -0.946333
vn -0.968617 0.000000 0.248557
vn -0.949645 0.000000 -0.313327
vn -0.949645 0.000000 -0.313327
vn -0.971154 0.000000 -0.238453
vn -0.946327 0.000000 0.323210
vn -0.946327 0.000000 0.323210
vn 0.248543 0.000000 0.968621
vn -0.313352 0.000000 0.949637
vn -0.313352 0.000000 0.949637
vn 0.971158 0.000000 0.238435
vn 0.946327 0.000000 -0.323210
vn 0.946327 0.000000 -0.323210
vn -0.248553 0.000000 -0.968619
vn 0.313393 0.000000 -0.949624
vn 0.313393 0.000000 -0.949624
vn -0.238462 0.000000 0.971152
vn 0.323214 0.000000 0.946326
vn 0.323214 0.000000 0.946326
vn 0.968619 0.000000 -0.248550
vn 0.949643 0.000000 0.313334
vn 0.949643 0.000000 0.313334
s off
g polySurface10 LIGHT_R SHOWER_LIGHTS
f 1/1/1 2/2/2 6/3/3 5/4/4
f 2/2/5 3/5/6 7/6/7 6/3/8
f 3/5/9 4/7/10 8/8/11 7/6/12
f 4/7/13 1/1/14 5/4/15 8/8/16
s 1
f 1/1/17 53/9/18 54/10/19 2/2/20
f 2/2/20 58/11/21 59/12/22 3/5/23
f 3/5/23 63/13/24 64/14/25 4/7/26
f 4/7/26 68/15/27 49/16/28 1/1/17
s 5
f 13/17/29 12/18/30 15/19/31 14/20/32
s 6
f 12/18/33 11/21/34 16/22/35 15/19/36
s 7
f 11/21/37 10/23/38 17/24/39 16/22/40
s 8
f 10/23/41 9/25/42 18/26/43 17/24/44
f 23/27/45 22/28/46 26/29/47 25/30/48
s 10
f 22/28/49 21/31/50 27/32/51 26/29/52
s 11
f 21/31/53 20/33/54 28/34/55 27/32/56
s 12
f 20/33/57 19/35/58 24/36/59 28/34/60
s 5
f 32/37/61 31/38/62 35/39/63 34/40/64
s 14
f 31/38/65 30/41/66 36/42/67 35/39/68
s 15
f 30/43/69 29/44/70 37/45/71 36/46/72
s 16
f 29/44/73 33/47/74 38/48/75 37/45/76
f 42/49/77 41/50/78 45/51/79 44/52/80
s 18
f 41/50/81 40/53/82 46/54/83 45/51/84
s 19
f 40/55/85 39/56/86 47/57/87 46/58/88
s 12
f 39/56/89 43/59/90 48/60/91 47/57/92
s 8
f 9/25/42 23/27/45 25/30/48 18/26/43
s 16
f 38/48/75 33/47/74 42/49/77 44/52/80
s 12
f 19/35/58 48/60/91 43/59/90 24/36/59
s 5
f 34/40/64 13/17/29 14/20/32 32/37/61
s 16
f 38/48/75 44/52/80 54/10/93 53/9/94
s 12
f 48/61/91 19/62/58 59/12/95 58/11/96
s 8
f 23/63/45 9/64/42 64/14/97 63/13/98
s 5
f 13/65/29 34/66/64 49/16/99 68/15/100
s 1
f 1/1/17 49/16/28 50/67/101
f 1/1/17 50/67/101 51/68/102
f 1/1/17 51/68/102 52/69/103
f 1/1/17 52/69/103 53/9/18
f 2/2/20 54/10/19 55/70/104
f 2/2/20 55/70/104 56/71/105
f 2/2/20 56/71/105 57/72/106
f 2/2/20 57/72/106 58/11/21
f 3/5/23 59/12/22 60/73/107
f 3/5/23 60/73/107 61/74/108
f 3/5/23 61/74/108 62/75/109
f 3/5/23 62/75/109 63/13/24
f 4/7/26 64/14/25 65/76/110
f 4/7/26 65/76/110 66/77/111
f 4/7/26 66/77/111 67/78/112
f 4/7/26 67/78/112 68/15/27
s 5
f 12/79/30 13/65/29 68/15/100 67/78/113
s 6
f 11/80/34 12/79/33 67/78/114 66/77/115
s 8
f 9/64/42 10/81/41 65/76/116 64/14/97
s 7
f 10/81/38 11/80/37 66/77/117 65/76/118
s 8
f 22/82/46 23/63/45 63/13/98 62/75/119
s 10
f 21/83/50 22/82/49 62/75/120 61/74/121
s 12
f 19/62/58 20/84/57 60/73/122 59/12/95
s 11
f 20/84/54 21/83/53 61/74/123 60/73/124
s 16
f 37/45/76 38/48/75 53/9/94 52/69/125
s 15
f 36/46/72 37/45/71 52/69/126 51/68/127
s 5
f 34/66/64 35/85/63 50/67/128 49/16/99
s 14
f 35/85/68 36/46/67 51/68/129 50/67/130
s 12
f 47/86/92 48/61/91 58/11/96 57/72/131
s 19
f 46/54/88 47/86/87 57/72/132 56/71/133
s 16
f 44/52/80 45/51/79 55/70/134 54/10/93
s 18
f 45/51/84 46/54/83 56/71/135 55/70/136
