# This file uses centimeters as units for non-parametric coordinates.

g default
v -7.030845 9.871293 10.878974
v 7.030845 9.871293 10.878974
v -7.030845 9.871293 -7.572152
v 7.030845 9.871293 -7.572152
v -6.942969 0.052165 10.878974
v -7.007299 0.116495 10.878974
v -7.030845 0.204372 10.878974
v -6.855093 0.028619 10.878974
v -7.007299 0.116495 -7.572152
v -6.942969 0.052165 -7.572152
v -6.855093 0.028619 -7.572152
v -7.030845 0.204372 -7.572152
v 7.007299 0.116495 10.878974
v 6.942969 0.052165 10.878974
v 6.855093 0.028619 10.878974
v 7.030845 0.204372 10.878974
v 6.942969 0.052165 -7.572152
v 7.007299 0.116495 -7.572152
v 7.030845 0.204372 -7.572152
v 6.855093 0.028619 -7.572152
vt 0.375000 0.250000
vt 0.375000 0.500000
vt 0.625000 0.250000
vt 0.625000 0.500000
vt 0.875000 0.004464
vt 0.625000 0.004464
vt 0.875000 0.250000
vt 0.375000 0.004464
vt 0.125000 0.004464
vt 0.125000 0.250000
vt 0.375390 0.012364
vt 0.376719 0.012429
vt 0.378125 0.012499
vt 0.621875 0.987501
vt 0.623481 0.993926
vt 0.625000 1.000000
vt 0.625000 0.986608
vt 0.625000 0.745536
vt 0.625000 0.750000
vt 0.623557 0.750211
vt 0.621875 0.750000
vt 0.378125 0.750000
vt 0.376506 0.749998
vt 0.375000 0.750000
vt 0.375000 0.745536
vn 0.000000 -1.000000 0.000000
vn 0.000000 -1.000000 0.000000
vn 0.000000 -1.000000 0.000000
vn 0.000000 -1.000000 0.000000
vn -1.000000 0.000000 0.000000
vn -1.000000 0.000000 0.000000
vn -1.000000 0.000000 0.000000
vn -1.000000 0.000000 0.000000
vn 1.000000 0.000000 0.000000
vn 1.000000 0.000000 0.000000
vn 1.000000 0.000000 0.000000
vn 1.000000 0.000000 0.000000
vn 0.000000 0.000000 -1.000000
vn -0.000000 0.000000 -1.000000
vn -0.000000 0.000000 -1.000000
vn -0.000000 0.000000 -1.000000
vn 0.000004 0.000000 -1.000000
vn 0.000001 0.000000 -1.000000
vn -0.000000 0.000000 -1.000000
vn -0.000016 0.000000 -1.000000
vn -0.000001 0.000000 -1.000000
vn 0.000004 0.000000 -1.000000
vn 0.000000 0.000000 1.000000
vn 0.000000 0.000000 1.000000
vn 0.000000 0.000000 1.000000
vn -0.000002 0.000000 1.000000
vn -0.000005 0.000000 1.000000
vn -0.000000 0.000000 1.000000
vn 0.000000 0.000000 1.000000
vn 0.000010 0.000000 1.000000
vn 0.000011 0.000000 1.000000
vn 0.000000 0.000000 1.000000
s 1
g polySurface3 Walls
f 1/1/1 3/2/2 2/3/3
f 2/3/3 3/2/2 4/4/4
s 2
f 19/5/5 16/6/6 4/7/7
f 4/7/7 16/6/6 2/3/8
s 3
f 7/8/9 12/9/10 1/1/11
f 1/1/11 12/9/10 3/10/12
s 4
g WallsShapeHiddenFacesSet defaultHideFaceDataSet polySurface3 Walls
f 1/1/13 2/3/14 7/8/15
f 7/8/15 2/3/14 6/11/16
f 6/11/16 2/3/14 5/12/17
f 5/12/17 2/3/14 8/13/18
f 8/13/18 2/3/14 15/14/19
f 15/14/19 2/3/14 14/15/20
f 14/15/20 2/3/14 13/16/21
f 13/16/21 2/3/14 16/17/22
s 5
g polySurface3 Walls
f 4/4/23 3/2/24 19/18/25
f 19/18/25 3/2/24 18/19/26
f 18/19/26 3/2/24 17/20/27
f 17/20/27 3/2/24 20/21/28
f 20/21/28 3/2/24 11/22/29
f 11/22/29 3/2/24 10/23/30
f 10/23/30 3/2/24 9/24/31
f 3/2/24 12/25/32 9/24/31
